<svg width="90" height="24" viewBox="0 0 90 24" fill="none" xmlns="http://www.w3.org/2000/svg">
<path fill-rule="evenodd" clip-rule="evenodd" d="M23.259 11.2979V0.297363H11.6306C5.2089 0.297363 0 5.50401 0 11.9257C0 18.3474 5.20665 23.5541 11.6306 23.5541H23.259V12.5535H13.973V11.2935H23.259V11.2979ZM11.6306 12.7132C11.1963 12.7132 10.8454 12.3622 10.8454 11.928C10.8454 11.4937 11.1963 11.1427 11.6306 11.1427C12.0649 11.1427 12.4159 11.4937 12.4159 11.928C12.4159 12.3622 12.0649 12.7132 11.6306 12.7132Z" fill="#FEF7E6"/>
<path d="M38.656 16.4191C38.2487 16.7521 37.7739 17.0379 37.2272 17.2764C36.5184 17.5892 35.6971 17.7444 34.7656 17.7444C33.8926 17.7444 33.1005 17.6049 32.3895 17.3214C31.6808 17.0424 31.0732 16.6441 30.5669 16.1356C30.0674 15.6226 29.6737 15.0151 29.3947 14.3063C29.1112 13.5976 28.9717 12.81 28.9717 11.9505C28.9717 11.091 29.1156 10.3102 29.4014 9.59918C29.6916 8.88591 30.0945 8.27387 30.612 7.75636C31.1295 7.23884 31.7482 6.83383 32.466 6.54582C33.1793 6.25781 33.9758 6.11157 34.8488 6.11157C35.7218 6.11157 36.4982 6.26006 37.1799 6.54582C37.7244 6.77533 38.2127 7.07461 38.6447 7.44362C38.2172 7.94764 37.8729 8.52364 37.6074 9.17166C37.5534 9.30217 37.5039 9.43492 37.4589 9.56993C37.1304 9.25042 36.7614 8.98715 36.3384 8.7734C35.8906 8.55289 35.3753 8.44039 34.7835 8.44039C34.311 8.44039 33.8656 8.52138 33.4493 8.68564C33.0353 8.84989 32.682 9.08392 32.3872 9.38318C32.0925 9.68694 31.8585 10.0559 31.6853 10.4834C31.5165 10.911 31.4309 11.3947 31.4309 11.928C31.4309 12.4613 31.5165 12.9405 31.6853 13.368C31.8585 13.7978 32.0925 14.1646 32.3872 14.4683C32.682 14.7721 33.0352 15.0061 33.4425 15.1659C33.8497 15.3301 34.2885 15.4111 34.7633 15.4111C35.3821 15.4111 35.9289 15.2919 36.3924 15.0533C36.7952 14.8531 37.1551 14.6101 37.4724 14.3266C37.5129 14.4458 37.5579 14.5651 37.6074 14.6843C37.8752 15.3324 38.2217 15.9106 38.6537 16.4147L38.656 16.4191Z" fill="#FEF7E6"/>
<path d="M38.5781 9.58786C38.8751 8.87009 39.2845 8.25584 39.8088 7.74507C40.3331 7.2343 40.9563 6.83603 41.6741 6.54802C42.3919 6.26001 43.1704 6.11377 44.0142 6.11377C44.8579 6.11377 45.6388 6.25776 46.3543 6.54802C47.0721 6.83603 47.6931 7.2343 48.2196 7.74507C48.7439 8.25584 49.1556 8.87009 49.4504 9.58786C49.7474 10.3056 49.8937 11.0842 49.8937 11.9279C49.8937 12.7717 49.7451 13.5525 49.4504 14.2703C49.1534 14.988 48.7439 15.6023 48.2196 16.1108C47.6931 16.6216 47.0721 17.0199 46.3543 17.3101C45.6366 17.6004 44.8579 17.7444 44.0142 17.7444C43.1704 17.7444 42.3896 17.6004 41.6741 17.3101C40.9563 17.0221 40.3353 16.6216 39.8088 16.1108C39.2845 15.6 38.8728 14.9858 38.5781 14.2703C38.2833 13.5547 38.1348 12.774 38.1348 11.9279C38.1348 11.0819 38.2833 10.3056 38.5781 9.58786ZM47.1756 10.5082C47.0068 10.0806 46.7683 9.71389 46.4645 9.41013C46.1608 9.10637 45.8031 8.8701 45.389 8.6991C44.975 8.52809 44.5159 8.44484 44.0142 8.44484C43.5124 8.44484 43.0534 8.52809 42.6394 8.6991C42.2254 8.8701 41.8677 9.10637 41.5639 9.41013C41.2602 9.71389 41.0239 10.0784 40.8529 10.5082C40.6819 10.9379 40.5986 11.4104 40.5986 11.9279C40.5986 12.4455 40.6819 12.9202 40.8529 13.3477C41.0216 13.7775 41.2602 14.1442 41.5639 14.448C41.8677 14.7518 42.2254 14.988 42.6394 15.159C43.0534 15.3278 43.5124 15.4133 44.0142 15.4133C44.5159 15.4133 44.975 15.3255 45.389 15.159C45.8031 14.988 46.1608 14.7518 46.4645 14.448C46.7683 14.1442 47.0046 13.7775 47.1756 13.3477C47.3466 12.9202 47.4298 12.4455 47.4298 11.9279C47.4298 11.4104 47.3466 10.9379 47.1756 10.5082Z" fill="#FEF7E6"/>
<path d="M51.4299 7.02498C52.1994 6.41746 53.2795 6.11597 54.67 6.11597C55.7343 6.11597 56.623 6.29595 57.3341 6.66047C58.0451 7.02273 58.6278 7.51551 59.0869 8.13653L57.4668 9.68908C57.2013 9.28857 56.8211 8.96005 56.3238 8.70129C55.8266 8.44254 55.2324 8.31429 54.5372 8.31429C53.9904 8.31429 53.5495 8.40877 53.2165 8.60228C52.8835 8.79578 52.7169 9.0613 52.7169 9.40106C52.7169 9.81733 52.9352 10.1031 53.3717 10.2673C53.8082 10.4293 54.4629 10.6071 55.3337 10.7983C55.8085 10.9019 56.2697 11.0256 56.722 11.1651C57.1742 11.3069 57.5771 11.5026 57.9326 11.7546C58.2881 12.0066 58.5716 12.3284 58.7854 12.7199C59.0014 13.1114 59.1071 13.611 59.1071 14.2185C59.1071 14.826 58.9968 15.3503 58.7741 15.7935C58.5536 16.239 58.2453 16.6058 57.8538 16.8938C57.4623 17.1818 56.9875 17.3978 56.434 17.5373C55.8783 17.6791 55.2685 17.7488 54.6024 17.7488C53.5382 17.7488 52.5684 17.5711 51.6954 17.2133C50.8223 16.86 50.1496 16.2885 49.6748 15.5055L51.3174 13.9305C51.6572 14.5087 52.1342 14.925 52.7484 15.1837C53.3627 15.4425 54.0332 15.5708 54.7577 15.5708C55.3202 15.5708 55.7793 15.4785 56.1325 15.294C56.4881 15.1095 56.6657 14.8012 56.6657 14.3715C56.6657 13.9417 56.4655 13.6447 56.0673 13.4737C55.6668 13.3027 55.0457 13.1294 54.202 12.9517C53.7745 12.8639 53.3267 12.7492 52.8609 12.6097C52.3929 12.4679 51.9699 12.2744 51.5829 12.0201C51.1981 11.7704 50.8854 11.4396 50.6401 11.0324C50.3948 10.6251 50.2734 10.1188 50.2734 9.51131C50.2734 8.46053 50.6581 7.6325 51.4254 7.02498H51.4299Z" fill="#FEF7E6"/>
<path d="M70.7772 6.71452C71.4072 6.31401 72.2172 6.11602 73.2072 6.11602C74.627 6.11602 75.6891 6.55029 76.3911 7.41432C77.0932 8.28059 77.4464 9.44611 77.4464 10.9087V17.4789H75.0276V11.0887C75.0276 10.1999 74.8341 9.52713 74.4515 9.06811C74.0668 8.6091 73.4908 8.37958 72.7213 8.37958C72.1745 8.37958 71.7177 8.48085 71.3554 8.68111C70.9931 8.88136 70.7006 9.15136 70.4779 9.48887C70.2574 9.82863 70.0976 10.2359 70.0008 10.7084C69.9041 11.1832 69.8569 11.6939 69.8569 12.2385V17.4766H67.4606V11.0864C67.4606 10.1976 67.2648 9.52487 66.8711 9.06586C66.4796 8.60685 65.899 8.37733 65.1295 8.37733C64.5827 8.37733 64.126 8.4786 63.7637 8.67885C63.4015 8.87911 63.1089 9.15135 62.8884 9.50011C62.6657 9.84662 62.5104 10.2539 62.4227 10.7197C62.3327 11.1854 62.2899 11.6917 62.2899 12.2385V17.4766H59.8936V6.38151H62.2247V7.95656C62.5645 7.4098 63.0189 6.96655 63.5905 6.62454C64.1597 6.28478 64.8663 6.11377 65.7078 6.11377C66.5966 6.11377 67.3346 6.30053 67.9263 6.67854C68.5181 7.05655 68.9636 7.57856 69.2584 8.24233C69.6431 7.62131 70.1495 7.11056 70.7795 6.7123L70.7772 6.71452Z" fill="#FEF7E6"/>
<path d="M78.6845 9.58786C78.9815 8.87009 79.391 8.25584 79.9152 7.74507C80.4395 7.2343 81.0628 6.83603 81.7806 6.54802C82.4983 6.26001 83.2768 6.11377 84.1206 6.11377C84.9644 6.11377 85.7453 6.25776 86.4608 6.54802C87.1785 6.83603 87.7996 7.2343 88.3261 7.74507C88.8504 8.25584 89.2621 8.87009 89.5568 9.58786C89.8538 10.3056 90.0001 11.0842 90.0001 11.9279C90.0001 12.7717 89.8516 13.5525 89.5568 14.2703C89.2598 14.988 88.8504 15.6023 88.3261 16.1108C87.7996 16.6216 87.1785 17.0199 86.4608 17.3101C85.743 17.5981 84.9644 17.7444 84.1206 17.7444C83.2768 17.7444 82.4961 17.6004 81.7806 17.3101C81.0628 17.0221 80.4418 16.6216 79.9152 16.1108C79.391 15.6 78.9793 14.9858 78.6845 14.2703C78.3875 13.5525 78.2412 12.774 78.2412 11.9279C78.2412 11.0819 78.3898 10.3056 78.6845 9.58786ZM87.2842 10.5082C87.1155 10.0806 86.877 9.71389 86.5733 9.41013C86.2695 9.10637 85.9117 8.8701 85.4977 8.6991C85.0837 8.52809 84.6247 8.44484 84.1229 8.44484C83.6212 8.44484 83.1622 8.52809 82.7482 8.6991C82.3341 8.8701 81.9763 9.10637 81.6726 9.41013C81.3688 9.71389 81.1326 10.0784 80.9616 10.5082C80.7906 10.9379 80.7073 11.4104 80.7073 11.9279C80.7073 12.4455 80.7906 12.9202 80.9616 13.3477C81.1304 13.7775 81.3688 14.1442 81.6726 14.448C81.9763 14.7518 82.3341 14.988 82.7482 15.159C83.1622 15.3278 83.6212 15.4133 84.1229 15.4133C84.6247 15.4133 85.0837 15.3255 85.4977 15.159C85.9117 14.988 86.2695 14.7518 86.5733 14.448C86.877 14.1442 87.1132 13.7775 87.2842 13.3477C87.4552 12.9202 87.5386 12.4455 87.5386 11.9279C87.5386 11.4104 87.4552 10.9379 87.2842 10.5082Z" fill="#FEF7E6"/>
</svg>
