<svg width="61" height="16" viewBox="0 0 61 16" fill="none" xmlns="http://www.w3.org/2000/svg">
<path fill-rule="evenodd" clip-rule="evenodd" d="M15.7127 7.43145V0H7.85707C3.51888 0 0 3.51736 0 7.85555C0 12.1937 3.51736 15.7111 7.85707 15.7111H15.7127V8.27965H9.43946V7.42843H15.7127V7.43145ZM7.85707 8.38756C7.5637 8.38756 7.32662 8.15044 7.32662 7.85707C7.32662 7.5637 7.5637 7.32658 7.85707 7.32658C8.15044 7.32658 8.3876 7.5637 8.3876 7.85707C8.3876 8.15044 8.15044 8.38756 7.85707 8.38756Z" fill="#E7AB25"/>
<path d="M26.1145 10.8908C25.8394 11.1157 25.5186 11.3088 25.1493 11.4699C24.6705 11.6812 24.1157 11.7861 23.4864 11.7861C22.8966 11.7861 22.3615 11.6918 21.8812 11.5003C21.4024 11.3118 20.992 11.0428 20.6499 10.6993C20.3125 10.3527 20.0465 9.94229 19.858 9.46348C19.6665 8.98467 19.5723 8.45264 19.5723 7.87198C19.5723 7.29133 19.6695 6.76388 19.8625 6.28355C20.0586 5.8017 20.3308 5.38824 20.6804 5.03863C21.03 4.68902 21.448 4.41541 21.9329 4.22085C22.4147 4.02628 22.9528 3.92749 23.5426 3.92749C24.1323 3.92749 24.6568 4.0278 25.1174 4.22085C25.4852 4.37589 25.815 4.57807 26.1069 4.82736C25.8181 5.16785 25.5855 5.55697 25.4062 5.99474C25.3697 6.0829 25.3362 6.17259 25.3058 6.26379C25.0839 6.04794 24.8346 5.87009 24.5488 5.72569C24.2463 5.57673 23.8982 5.50073 23.4985 5.50073C23.1793 5.50073 22.8783 5.55544 22.5971 5.66641C22.3174 5.77737 22.0788 5.93547 21.8796 6.13763C21.6805 6.34284 21.5225 6.59211 21.4054 6.88092C21.2914 7.16972 21.2336 7.49654 21.2336 7.85679C21.2336 8.21704 21.2914 8.54081 21.4054 8.82962C21.5225 9.11994 21.6805 9.36771 21.8796 9.57292C22.0788 9.77812 22.3174 9.9362 22.5925 10.0441C22.8677 10.1551 23.1641 10.2098 23.4848 10.2098C23.9028 10.2098 24.2722 10.1292 24.5854 9.96812C24.8574 9.83284 25.1006 9.66868 25.3149 9.47715C25.3423 9.55772 25.3727 9.63827 25.4062 9.71883C25.587 10.1566 25.8211 10.5473 26.113 10.8878L26.1145 10.8908Z" fill="#E7AB25"/>
<path d="M26.0612 6.27589C26.2618 5.79099 26.5384 5.37603 26.8926 5.03098C27.2468 4.68593 27.6678 4.41688 28.1527 4.22231C28.6376 4.02775 29.1635 3.92896 29.7336 3.92896C30.3036 3.92896 30.8311 4.02623 31.3145 4.22231C31.7994 4.41688 32.2189 4.68593 32.5746 5.03098C32.9287 5.37603 33.2069 5.79099 33.406 6.27589C33.6066 6.76078 33.7055 7.28672 33.7055 7.85673C33.7055 8.42674 33.6051 8.9542 33.406 9.4391C33.2054 9.92399 32.9287 10.3389 32.5746 10.6825C32.2189 11.0275 31.7994 11.2966 31.3145 11.4927C30.8296 11.6888 30.3036 11.786 29.7336 11.786C29.1635 11.786 28.6361 11.6888 28.1527 11.4927C27.6678 11.2981 27.2483 11.0275 26.8926 10.6825C26.5384 10.3374 26.2603 9.92247 26.0612 9.4391C25.8621 8.95572 25.7617 8.42826 25.7617 7.85673C25.7617 7.2852 25.8621 6.76078 26.0612 6.27589ZM31.8693 6.8976C31.7553 6.60879 31.5941 6.36102 31.3889 6.15582C31.1837 5.95061 30.942 5.791 30.6624 5.67548C30.3827 5.55996 30.0725 5.50371 29.7336 5.50371C29.3946 5.50371 29.0845 5.55996 28.8048 5.67548C28.5252 5.791 28.2835 5.95061 28.0783 6.15582C27.8731 6.36102 27.7135 6.60727 27.5979 6.8976C27.4824 7.18792 27.4262 7.50712 27.4262 7.85673C27.4262 8.20634 27.4824 8.52708 27.5979 8.81588C27.7119 9.10621 27.8731 9.35396 28.0783 9.55917C28.2835 9.76437 28.5252 9.92398 28.8048 10.0395C29.0845 10.1535 29.3946 10.2113 29.7336 10.2113C30.0725 10.2113 30.3827 10.152 30.6624 10.0395C30.942 9.92398 31.1837 9.76437 31.3889 9.55917C31.5941 9.35396 31.7537 9.10621 31.8693 8.81588C31.9848 8.52708 32.041 8.20634 32.041 7.85673C32.041 7.50712 31.9848 7.18792 31.8693 6.8976Z" fill="#E7AB25"/>
<path d="M34.7433 4.5445C35.2631 4.13409 35.9927 3.93042 36.9321 3.93042C37.6511 3.93042 38.2515 4.05201 38.7318 4.29826C39.2122 4.54298 39.6059 4.87588 39.916 5.29541L38.8215 6.34424C38.6421 6.07368 38.3853 5.85175 38.0494 5.67694C37.7134 5.50214 37.3121 5.4155 36.8424 5.4155C36.473 5.4155 36.1752 5.47933 35.9502 5.61005C35.7252 5.74078 35.6127 5.92015 35.6127 6.14967C35.6127 6.43088 35.7602 6.62392 36.0551 6.73488C36.35 6.84433 36.7922 6.96441 37.3805 7.09361C37.7012 7.16353 38.0128 7.24714 38.3184 7.34138C38.6239 7.43714 38.896 7.56938 39.1362 7.73963C39.3764 7.90987 39.5679 8.12724 39.7123 8.39173C39.8582 8.65622 39.9296 8.99367 39.9296 9.40408C39.9296 9.81449 39.8551 10.1687 39.7046 10.4681C39.5557 10.7691 39.3475 11.0168 39.083 11.2114C38.8185 11.406 38.4977 11.5519 38.1238 11.6461C37.7484 11.7419 37.3364 11.789 36.8865 11.789C36.1675 11.789 35.5124 11.6689 34.9226 11.4272C34.3328 11.1886 33.8783 10.8025 33.5576 10.2735L34.6673 9.20951C34.8968 9.60016 35.219 9.88136 35.634 10.0562C36.049 10.231 36.5019 10.3176 36.9914 10.3176C37.3714 10.3176 37.6815 10.2553 37.9202 10.1306C38.1603 10.006 38.2804 9.79776 38.2804 9.50743C38.2804 9.21711 38.1451 9.01646 37.8761 8.90094C37.6055 8.78542 37.186 8.66838 36.616 8.5483C36.3271 8.48902 36.0247 8.41149 35.71 8.31725C35.3938 8.22149 35.1081 8.09076 34.8466 7.919C34.5867 7.75028 34.3754 7.52683 34.2097 7.2517C34.044 6.97657 33.962 6.63456 33.962 6.22415C33.962 5.5143 34.2219 4.95491 34.7402 4.5445H34.7433Z" fill="#E7AB25"/>
<path d="M47.8144 4.33479C48.24 4.06423 48.7872 3.93048 49.456 3.93048C50.4151 3.93048 51.1326 4.22385 51.6069 4.80754C52.0811 5.39276 52.3198 6.18012 52.3198 7.16815V11.6067H50.6857V7.28976C50.6857 6.68934 50.555 6.23485 50.2966 5.92477C50.0367 5.61468 49.6475 5.45963 49.1277 5.45963C48.7583 5.45963 48.4497 5.52804 48.205 5.66332C47.9603 5.79861 47.7627 5.98101 47.6122 6.20901C47.4632 6.43854 47.3553 6.71365 47.2899 7.03286C47.2246 7.35359 47.1927 7.69865 47.1927 8.0665V11.6052H45.5739V7.28824C45.5739 6.68782 45.4416 6.23333 45.1756 5.92325C44.9111 5.61316 44.5189 5.4581 43.999 5.4581C43.6297 5.4581 43.3211 5.52652 43.0764 5.6618C42.8317 5.79709 42.6341 5.981 42.4851 6.2166C42.3346 6.45069 42.2298 6.72582 42.1705 7.04047C42.1097 7.35512 42.0807 7.69713 42.0807 8.0665V11.6052H40.4619V4.10983H42.0367V5.17386C42.2663 4.80449 42.5733 4.50505 42.9594 4.27401C43.3439 4.04448 43.8213 3.92896 44.3897 3.92896C44.9902 3.92896 45.4887 4.05512 45.8885 4.31049C46.2883 4.56585 46.5892 4.91849 46.7883 5.36691C47.0483 4.94738 47.3903 4.60234 47.8159 4.33329L47.8144 4.33479Z" fill="#E7AB25"/>
<path d="M53.1559 6.27589C53.3566 5.79099 53.6332 5.37603 53.9873 5.03098C54.3415 4.68593 54.7626 4.41688 55.2475 4.22231C55.7324 4.02775 56.2583 3.92896 56.8283 3.92896C57.3983 3.92896 57.9258 4.02623 58.4092 4.22231C58.8941 4.41688 59.3136 4.68593 59.6693 5.03098C60.0235 5.37603 60.3016 5.79099 60.5007 6.27589C60.7014 6.76078 60.8002 7.28672 60.8002 7.85673C60.8002 8.42674 60.6999 8.9542 60.5007 9.4391C60.3001 9.92399 60.0235 10.3389 59.6693 10.6825C59.3136 11.0275 58.8941 11.2966 58.4092 11.4927C57.9243 11.6872 57.3983 11.786 56.8283 11.786C56.2583 11.786 55.7308 11.6888 55.2475 11.4927C54.7626 11.2981 54.343 11.0275 53.9873 10.6825C53.6332 10.3374 53.3551 9.92247 53.1559 9.4391C52.9553 8.9542 52.8564 8.42826 52.8564 7.85673C52.8564 7.2852 52.9568 6.76078 53.1559 6.27589ZM58.9655 6.8976C58.8515 6.60879 58.6904 6.36102 58.4852 6.15582C58.28 5.95061 58.0383 5.791 57.7586 5.67548C57.4789 5.55996 57.1688 5.50371 56.8298 5.50371C56.4909 5.50371 56.1808 5.55996 55.9011 5.67548C55.6214 5.791 55.3797 5.95061 55.1745 6.15582C54.9693 6.36102 54.8097 6.60727 54.6942 6.8976C54.5787 7.18792 54.5224 7.50712 54.5224 7.85673C54.5224 8.20634 54.5787 8.52708 54.6942 8.81588C54.8082 9.10621 54.9693 9.35396 55.1745 9.55917C55.3797 9.76437 55.6214 9.92398 55.9011 10.0395C56.1808 10.1535 56.4909 10.2113 56.8298 10.2113C57.1688 10.2113 57.4789 10.152 57.7586 10.0395C58.0383 9.92398 58.28 9.76437 58.4852 9.55917C58.6904 9.35396 58.8499 9.10621 58.9655 8.81588C59.081 8.52708 59.1373 8.20634 59.1373 7.85673C59.1373 7.50712 59.081 7.18792 58.9655 6.8976Z" fill="#E7AB25"/>
</svg>
