<svg width="962" height="227" viewBox="0 0 962 227" fill="none" xmlns="http://www.w3.org/2000/svg">
<path d="M83.1605 39.5434C83.1605 39.5434 76.514 62.5729 55.2561 55.9265C33.9981 49.28 13.1797 53.2626 13.1797 53.2626C13.1797 53.2626 34.4376 50.5986 45.0666 65.2235C55.6956 79.8483 71.1995 81.6065 64.9926 112.175C58.7857 142.743 58.3462 165.32 65.8851 180.384C73.4239 195.448 61.9025 202.082 54.3637 200.763C54.3637 200.763 64.9926 203.427 85.8111 198.099C106.629 192.771 121.694 209.168 149.145 203.414C149.145 203.414 90.2331 195.435 91.5651 136.083L101.755 132.98C101.755 132.98 100.862 149.816 108.401 160.005C115.94 170.195 125.237 172.845 124.784 188.802C124.784 188.802 130.991 179.052 141.167 177.734C151.343 176.415 164.196 166.665 167.3 154.265C167.3 154.265 161.985 164.454 152.236 156.476C142.486 148.497 130.978 133.007 134.96 107.313C138.943 81.6198 139.396 62.1333 128.314 43.0864C117.232 24.0395 130.978 20.936 130.978 20.936C130.978 20.936 123.226 21.9616 112.823 23.0006C103.966 23.893 93.0436 16.7937 72.9577 19.7506C72.9577 19.7506 93.0436 20.0437 91.5651 35.9871C90.9124 43.0465 92.4575 49.28 99.983 64.3311C107.509 79.3822 105.737 99.3215 105.737 99.3215L95.9872 101.985C95.9872 101.985 97.7587 82.9384 90.2331 65.2235C82.7076 47.5085 83.1472 39.5301 83.1472 39.5301L83.1605 39.5434Z" fill="#FEF7E6" stroke="#FEF7E6" stroke-width="0.396239" stroke-miterlimit="10"/>
<path d="M245.124 10.9069C245.124 10.9069 288.825 7.65699 286.761 37.7724C284.696 67.8879 264.024 76.1593 267.86 101.253C271.696 126.347 281.739 130.783 276.132 158.541C276.132 158.541 293.847 134.326 330.755 166.519C330.755 166.519 300.04 127.839 301.226 100.081C302.411 72.3233 325.148 64.9443 323.083 36.8933C321.019 8.84242 325.148 6.48486 325.148 6.48486C325.148 6.48486 315.398 13.8639 301.825 11.5063C288.253 9.14877 263.438 4.12731 245.124 10.9203V10.9069Z" fill="#FEF7E6" stroke="#FEF7E6" stroke-width="0.396239" stroke-miterlimit="10"/>
<path d="M519.746 9.72144C519.746 9.72144 515.018 18.872 517.682 37.4793C520.346 56.0867 525.354 72.0302 504.695 90.3312C484.037 108.632 480.773 120.154 479.295 129.304C477.817 138.455 483.131 153.519 458.33 175.962C458.33 175.962 478.709 155.291 511.182 168.29C543.655 181.29 543.961 192.505 572.891 201.949C572.891 201.949 550.741 185.712 547.797 169.169C544.854 152.627 550.461 137.869 550.461 137.869C550.461 137.869 546.918 144.955 538.94 144.076C530.961 143.196 513.846 140.533 513.846 140.533C513.846 140.533 514.432 123.111 524.475 111.296C524.475 111.296 550.461 113.654 547.211 128.132C547.211 128.132 549.569 108.046 554.883 102.732C560.198 97.4172 572.305 92.3957 577.62 82.9522C577.62 82.9522 570.241 90.9306 546.612 89.4521C546.612 89.4521 557.827 77.3447 559.012 67.3017C559.012 67.3017 580.563 66.7157 589.727 80.8877L579.684 33.6433C579.684 33.6433 581.163 44.5653 574.37 42.7938C567.577 41.0223 518.268 34.8154 519.746 9.72144Z" fill="#FEF7E6" stroke="#FEF7E6" stroke-width="0.396239" stroke-miterlimit="10"/>
<path d="M216.034 155.011C216.034 155.011 216.126 155.011 216.179 155.011C216.179 155.011 216.139 155.011 216.034 155.011Z" fill="#FEF7E6" stroke="#FEF7E6" stroke-width="0.396239" stroke-miterlimit="10"/>
<path d="M238.331 75.2801C244.232 51.0652 236.267 45.1646 235.667 33.3502C235.081 21.5358 262.24 21.8288 262.24 21.8288C252.796 19.4713 238.917 19.4713 218.538 23.6003C198.159 27.7294 195.509 26.2642 173.359 20.0573C151.208 13.8504 140.286 17.1004 140.286 17.1004C140.286 17.1004 172.173 13.5574 179.259 37.4793C186.345 61.4011 169.816 80.8876 165.38 110.124C160.945 139.36 175.13 145.847 175.13 160.325C175.13 174.804 158.894 201.07 158.894 201.07C158.894 201.07 162.73 197.527 168.337 190.441C173.945 183.355 178.38 173.019 196.095 163.868C211.492 155.916 215.288 155.091 216.021 155.011C205.245 155.97 204.06 134.925 204.06 134.925L218.232 134.339C218.232 134.339 230.632 149.097 222.667 162.39C214.689 175.683 220.603 194.57 220.603 194.57C220.603 194.57 219.417 162.683 244.232 155.29C269.033 147.911 271.404 134.619 271.404 134.619C249.253 151.148 232.431 99.4817 238.331 75.2668V75.2801ZM209.987 75.8662C206.444 100.667 208.069 111.602 208.069 111.602L195.229 113.667C195.229 113.667 191.54 101.266 200.251 87.0945C208.962 72.9225 211.626 51.3715 211.626 51.3715C211.626 51.3715 213.544 51.0785 210.001 75.8794L209.987 75.8662Z" fill="#FEF7E6" stroke="#FEF7E6" stroke-width="0.396239" stroke-miterlimit="10"/>
<path d="M469.253 28.0354C455.547 21.5621 441.202 20.057 392.48 9.73438C392.48 9.73438 429.987 24.7988 415.802 51.0782C401.63 77.3576 380.372 83.2581 382.437 113.387C384.501 143.502 380.372 165.653 380.372 165.653C380.372 165.653 392.187 150.588 410.195 154.131C428.203 157.674 434.995 171.553 447.103 171.553C447.103 171.553 432.638 166.825 418.759 143.795C404.88 120.766 421.423 96.5511 421.423 96.5511C421.423 96.5511 464.232 103.943 476.353 79.1291C488.753 53.7288 490.525 38.0783 469.267 28.0487L469.253 28.0354ZM457.878 64.9438C451.525 80.0082 437.646 76.0123 437.646 76.0123C452.71 55.3404 450.486 43.233 450.486 43.233C457.719 43.6725 464.218 49.8794 457.865 64.9305L457.878 64.9438Z" fill="#FEF7E6" stroke="#FEF7E6" stroke-width="0.396239" stroke-miterlimit="10"/>
<path d="M568.431 21.8817C566.26 21.4022 564.928 21.229 564.928 21.229C566.113 21.4421 567.285 21.6552 568.431 21.8817Z" fill="#FEF7E6" stroke="#FEF7E6" stroke-width="0.396239" stroke-miterlimit="10"/>
<path d="M647.014 186.005C640.221 154.704 643.178 147.618 647.307 141.118C651.436 134.618 654.393 126.653 641.993 122.217C641.993 122.217 672.108 125.467 678.608 103.317C685.108 81.1666 679.793 65.8091 654.393 51.9435C630.391 38.8238 608.68 29.4468 568.429 21.8813C578.925 24.1723 609.506 33.6825 609.506 66.7016C609.506 106.567 576.141 99.1879 567.869 131.368C559.598 163.548 566.977 165.319 554.883 171.233C554.883 171.233 570.24 171.526 584.119 181.862C597.998 192.198 602.127 200.47 615.713 207.556C615.713 207.556 595.934 194.862 598.584 162.376C601.235 129.889 610.692 126.946 610.692 126.946C610.692 126.946 619.842 125.174 617.192 132.846C614.541 140.518 609.52 148.497 610.106 163.561C610.692 178.626 611.584 188.362 611.584 188.362C611.584 188.362 624.877 183.634 637.863 198.112C650.85 212.577 662.957 218.491 682.457 217.598C682.457 217.598 653.82 217.305 647.027 186.005H647.014ZM627.075 108.059C642.286 93.7402 641.1 77.9433 641.1 77.9433C641.1 77.9433 655.565 80.6071 648.04 97.4297C640.514 114.266 627.075 108.059 627.075 108.059Z" fill="#FEF7E6" stroke="#FEF7E6" stroke-width="0.396239" stroke-miterlimit="10"/>
<path d="M787.565 74.8231C787.565 74.8231 782.836 92.8311 776.35 84.2667C769.863 75.7022 759.514 67.4308 742.398 66.5517C725.283 65.6726 703.119 66.8447 705.197 89.2881C707.275 111.732 696.926 108.775 697.525 125.011C698.124 141.248 723.511 146.868 723.511 165.462C723.511 184.057 712.296 178.156 712.296 178.156C712.296 178.156 700.189 162.213 712.003 153.355C712.003 153.355 697.831 158.67 682.474 144.205C667.116 129.74 654.13 134.162 655.009 134.162C655.888 134.162 675.974 137.998 677.452 153.941C678.931 169.885 680.116 189.664 702.546 199.707C724.976 209.75 743.89 204.728 753.627 196.457C763.363 188.186 751.562 168.992 757.17 150.984C762.777 132.976 738.269 119.976 737.683 102.847C737.097 85.7185 740.933 87.49 740.933 87.49C740.933 87.49 748.312 84.8261 748.605 95.4684C748.898 106.111 742.705 121.455 771.928 134.748C771.928 134.748 753.32 120.869 766.906 111.119C780.492 101.369 788.164 95.7614 787.578 74.7965L787.565 74.8231Z" fill="#FEF7E6" stroke="#FEF7E6" stroke-width="0.396239" stroke-miterlimit="10"/>
<path d="M820.048 49.5867C820.048 49.5867 869.357 31.2724 898.593 55.7936C927.829 80.3016 904.494 105.702 905.972 144.968L934.023 140.532C934.023 140.532 931.959 120.447 941.109 101.253C950.26 82.0597 943.467 59.9093 938.751 51.9443C934.036 43.9792 943.187 28.3154 943.187 28.3154C943.187 28.3154 934.329 45.4443 900.671 39.8368C867.012 34.2293 846.048 38.6514 820.061 49.5867H820.048Z" fill="#FEF7E6" stroke="#FEF7E6" stroke-width="0.396239" stroke-miterlimit="10"/>
<path d="M915.349 182.941C911.407 187.67 904.361 188.309 899.632 184.366C894.904 180.424 894.265 173.378 898.207 168.649C902.15 163.921 928.416 152.24 928.416 152.24C928.416 152.24 919.292 178.213 915.349 182.955V182.941Z" fill="#FEF7E6"/>
<path d="M938.91 167.158C939.709 170.035 938.23 172.979 935.58 173.712C932.943 174.444 930.145 172.713 929.333 169.836C928.52 166.958 930.598 153.373 930.598 153.373C930.598 153.373 938.097 164.281 938.91 167.158Z" fill="#FEF7E6"/>
<path d="M953.364 22.0413C955.841 20.363 959.091 20.8425 960.636 23.1202C962.181 25.3978 961.409 28.5945 958.945 30.2728C956.48 31.951 942.935 34.2952 942.935 34.2952C942.935 34.2952 950.9 23.7195 953.364 22.0413Z" fill="#FEF7E6"/>
<path d="M805.264 51.331C800.922 51.9703 796.926 49.2532 796.34 45.2706C795.754 41.2881 798.804 37.5453 803.146 36.906C807.488 36.2666 826.868 41.7942 826.868 41.7942C826.868 41.7942 809.606 50.6917 805.264 51.331Z" fill="#FEF7E6"/>
<path d="M699.066 204.998C703.448 204.665 707.231 207.662 707.537 211.672C707.844 215.681 704.541 219.21 700.158 219.543C695.776 219.876 676.836 212.99 676.836 212.99C676.836 212.99 694.684 205.331 699.066 205.012V204.998Z" fill="#FEF7E6"/>
<path d="M552.5 16.3674C548.53 14.5027 546.692 10.0406 548.397 6.39109C550.102 2.74154 554.711 1.30304 558.693 3.16777C562.676 5.03251 575.782 20.3366 575.782 20.3366C575.782 20.3366 556.482 18.2322 552.5 16.3674Z" fill="#FEF7E6"/>
<path d="M461.271 186.897C460.525 188.655 458.288 189.401 456.277 188.549C454.265 187.696 453.226 185.579 453.972 183.82C454.718 182.062 461.977 176.441 461.977 176.441C461.977 176.441 462.031 185.139 461.285 186.911L461.271 186.897Z" fill="#FEF7E6"/>
<path d="M387.788 175.296C387.828 177.2 386.083 178.786 383.886 178.839C381.688 178.892 379.89 177.374 379.85 175.456C379.81 173.538 384.165 165.453 384.165 165.453C384.165 165.453 387.748 173.378 387.788 175.296Z" fill="#FEF7E6"/>
<path d="M340.238 160.791C341.969 161.617 342.595 163.881 341.663 165.866C340.731 167.85 338.56 168.783 336.828 167.957C335.096 167.131 329.809 159.632 329.809 159.632C329.809 159.632 338.506 159.965 340.238 160.791Z" fill="#FEF7E6"/>
<path d="M381.754 18.885C378.544 18.2324 376.479 15.0357 377.145 11.7724C377.811 8.50912 380.968 6.378 384.178 7.03066C387.388 7.68331 399.469 17.1668 399.469 17.1668C399.469 17.1668 384.977 19.5377 381.754 18.885Z" fill="#FEF7E6"/>
<path d="M234.031 15.9013C232.166 16.7271 229.955 15.7947 229.076 13.8234C228.197 11.8521 228.996 9.57449 230.861 8.74867C232.726 7.92286 242.316 8.53556 242.316 8.53556C242.316 8.53556 235.882 15.0754 234.031 15.9013Z" fill="#FEF7E6"/>
<path d="M164.992 218.451C163.74 221.408 159.944 222.634 156.521 221.195C153.098 219.757 151.313 216.174 152.552 213.217C153.804 210.26 166.084 200.843 166.084 200.843C166.084 200.843 166.244 215.494 164.992 218.451Z" fill="#FEF7E6"/>
<path d="M132.759 15.8617C129.562 15.502 127.231 12.9314 127.551 10.1076C127.87 7.28389 130.708 5.28596 133.904 5.63227C137.101 5.99189 149.808 13.2777 149.808 13.2777C149.808 13.2777 135.955 16.208 132.759 15.8617Z" fill="#FEF7E6"/>
<path d="M224.025 206.277C224.585 208.621 223.12 210.979 220.749 211.552C218.378 212.125 215.994 210.673 215.434 208.328C214.875 205.984 217.406 194.996 217.406 194.996C217.406 194.996 223.466 203.933 224.025 206.277Z" fill="#FEF7E6"/>
<path d="M230.658 197.233C231.711 198.325 231.524 200.217 230.232 201.469C228.94 202.721 227.035 202.854 225.983 201.762C224.931 200.669 223.173 193.543 223.173 193.543C223.173 193.543 229.606 196.141 230.658 197.233Z" fill="#FEF7E6"/>
<path d="M12.4834 63.5988C11.2314 64.4513 9.39329 63.9451 8.381 62.4534C7.36872 60.9616 7.55519 59.0702 8.80723 58.2178C10.0593 57.3653 17.385 56.8325 17.385 56.8325C17.385 56.8325 13.7355 62.7331 12.4834 63.5855V63.5988Z" fill="#FEF7E6"/>
<path d="M4.2936 52.0104C1.73625 51.784 -0.181763 49.7861 0.00471017 47.5484C0.204503 45.3107 2.42886 43.6724 4.99953 43.8988C7.5702 44.1253 17.8795 49.6662 17.8795 49.6662C17.8795 49.6662 6.85095 52.2369 4.2936 52.0104Z" fill="#FEF7E6"/>
<path d="M45.0524 208.502C42.495 208.275 40.577 206.277 40.7635 204.04C40.9633 201.802 43.1877 200.164 45.7583 200.39C48.329 200.616 58.6383 206.157 58.6383 206.157C58.6383 206.157 47.6097 208.728 45.0524 208.502Z" fill="#FEF7E6"/>
<path d="M327.704 2.1022C328.357 0.850164 330.062 0.450581 331.5 1.20979C332.939 1.96901 333.578 3.594 332.925 4.84604C332.273 6.09808 326.559 9.77426 326.559 9.77426C326.559 9.77426 327.038 3.35424 327.704 2.1022Z" fill="#FEF7E6"/>
<path d="M147.611 8.1358C146.732 7.03028 147.065 5.31208 148.343 4.29979C149.622 3.28751 151.367 3.36741 152.246 4.47293C153.125 5.57846 154.151 12.2915 154.151 12.2915C154.151 12.2915 148.49 9.22801 147.611 8.12249V8.1358Z" fill="#FEF7E6"/>
<path d="M523.767 3.58072C524.419 2.32868 526.124 1.9291 527.563 2.68831C529.001 3.44752 529.64 5.0725 528.988 6.32454C528.335 7.57657 522.621 11.2528 522.621 11.2528C522.621 11.2528 523.101 4.83275 523.767 3.58072Z" fill="#FEF7E6"/>
<path d="M618.696 214.789C621.08 217.599 620.508 221.981 617.444 224.579C614.367 227.176 609.959 227.016 607.575 224.206C605.19 221.395 601.567 204.293 601.567 204.293C601.567 204.293 616.325 211.965 618.696 214.775V214.789Z" fill="#FEF7E6"/>
<path d="M374.455 178.173C372.457 181.263 368.088 181.983 364.718 179.798C361.348 177.614 360.23 173.325 362.227 170.248C364.225 167.171 379.556 158.753 379.556 158.753C379.556 158.753 376.466 175.096 374.455 178.187V178.173Z" fill="#FEF7E6"/>
<path d="M335.974 175.923C337.852 179.079 336.573 183.315 333.124 185.379C329.661 187.444 325.332 186.551 323.454 183.381C321.576 180.225 320.816 162.75 320.816 162.75C320.816 162.75 334.109 172.752 335.987 175.909L335.974 175.923Z" fill="#FEF7E6"/>
<path d="M578.26 211.259C580.018 213.324 579.658 216.507 577.46 218.372C575.263 220.236 572.066 220.063 570.308 217.985C568.55 215.908 565.739 203.427 565.739 203.427C565.739 203.427 576.501 209.181 578.26 211.246V211.259Z" fill="#FEF7E6"/>
<path d="M812.87 36.7725C810.339 35.667 809.127 32.8965 810.139 30.5789C811.152 28.2613 814.029 27.2757 816.546 28.3812C819.063 29.4867 827.548 38.877 827.548 38.877C827.548 38.877 815.4 37.878 812.87 36.7725Z" fill="#FEF7E6"/>
<path d="M778.118 62.2934C777.771 59.5629 779.53 57.0855 782.047 56.7791C784.551 56.4728 786.869 58.4308 787.202 61.1613C787.535 63.8918 783.805 75.9859 783.805 75.9859C783.805 75.9859 778.464 65.0239 778.118 62.2934Z" fill="#FEF7E6"/>
<path d="M686.996 220.849C688.555 221.342 689.394 223.086 688.874 224.751C688.355 226.416 686.65 227.362 685.092 226.869C683.533 226.376 678.072 220.889 678.072 220.889C678.072 220.889 685.438 220.356 686.996 220.849Z" fill="#FEF7E6"/>
<path d="M592.046 88.919C592.632 90.4507 591.793 92.1955 590.168 92.8216C588.543 93.4476 586.745 92.715 586.159 91.1966C585.573 89.6782 586.438 81.9795 586.438 81.9795C586.438 81.9795 591.447 87.4005 592.046 88.919Z" fill="#FEF7E6"/>
<path d="M454.787 165.626C456.425 165.506 457.851 166.811 457.984 168.543C458.117 170.274 456.905 171.793 455.267 171.913C453.628 172.032 446.516 168.982 446.516 168.982C446.516 168.982 453.149 165.746 454.787 165.626Z" fill="#FEF7E6"/>
<path d="M49.3803 199.231C47.7819 198.885 46.783 197.22 47.1426 195.528C47.5022 193.836 49.1006 192.718 50.7122 193.064C52.3239 193.41 58.2644 198.352 58.2644 198.352C58.2644 198.352 50.9919 199.577 49.3803 199.231Z" fill="#FEF7E6"/>
<path d="M561.57 30.326C559.972 30.6857 558.374 29.5935 557.987 27.8886C557.601 26.1837 558.6 24.5187 560.198 24.1724C561.797 23.8261 569.269 25.8374 569.269 25.8374C569.269 25.8374 563.155 29.9797 561.557 30.3394L561.57 30.326Z" fill="#FEF7E6"/>
<path d="M783.634 132.554C785.192 133.047 786.032 134.792 785.512 136.457C784.993 138.122 783.288 139.068 781.729 138.575C780.171 138.082 774.71 132.594 774.71 132.594C774.71 132.594 782.076 132.062 783.634 132.554Z" fill="#FEF7E6"/>
<path d="M940.774 16.3811C941.813 14.3699 944.157 13.5041 946.009 14.4631C947.86 15.4221 948.513 17.833 947.474 19.8442C946.435 21.8555 938.257 28.3287 938.257 28.3287C938.257 28.3287 939.735 18.3924 940.774 16.3811Z" fill="#FEF7E6"/>
<path d="M840.426 57.5646C840.426 57.5646 814.733 54.9007 805.29 73.5081C795.846 92.1155 813.854 100.973 795.846 132.274C777.838 163.575 795.553 195.755 824.789 196.647C854.026 197.54 873.805 192.212 871.741 160.032C869.676 127.852 872.034 126.959 881.184 108.658C890.335 90.3573 879.706 56.0995 840.44 57.5779L840.426 57.5646ZM849.284 94.0601C849.164 109.804 845.501 125.068 839.401 137.215C833.98 147.991 830.557 156.555 831.436 168.636C831.596 170.767 831.556 174.497 828.106 175.323C824.47 176.188 822.672 171.939 822.046 169.675C819.142 159.166 821.593 149.15 826.108 139.426C829.358 132.42 832.901 125.374 834.859 117.969C836.99 109.924 837.483 101.452 838.615 93.1544C838.975 90.5304 837.47 81.2467 843.97 81.4598C851.056 81.5531 849.098 92.4085 849.284 94.0601Z" fill="#FEF7E6" stroke="#FEF7E6" stroke-width="0.396239" stroke-miterlimit="10"/>
</svg>
