<svg width="309" height="72" viewBox="0 0 309 72" fill="none" xmlns="http://www.w3.org/2000/svg">
<path d="M93.1734 15.2367C94.4485 15.8946 95.6413 16.3117 96.5822 17.0317C98.7442 18.6852 100.891 18.4692 103.15 17.3545C103.929 16.9697 104.747 16.6593 105.551 16.3142C105.652 16.5426 105.731 16.6395 105.706 16.6817C103.76 19.9291 104.695 23.5837 104.174 27.0298C103.95 28.512 103.641 29.8055 102.616 30.96C100.212 33.6687 98.2146 36.6133 97.4922 40.1835C97.3431 40.9208 97.4717 41.7128 97.613 42.4899C98.0963 39.2723 99.5077 36.4767 101.464 33.9195C102.094 33.0952 102.883 32.3876 103.567 31.5981C106.387 28.3432 107.084 24.5719 106.428 20.4852C106.369 20.1203 106.163 19.7603 106.186 19.4077C106.215 18.9906 106.42 18.5859 106.549 18.1738C106.883 18.2955 107.243 18.3749 107.551 18.5437C108.821 19.2414 110.091 19.4797 111.515 18.9161C113.341 18.1937 115.168 17.419 117.071 16.9622C118.374 16.6494 119.809 16.7859 121.181 16.8132C122.662 16.843 124.151 16.8977 125.613 17.0988C126.863 17.2701 128.079 17.6673 129.307 17.9628C129.277 18.0894 129.248 18.216 129.217 18.3451C128.356 18.2433 127.487 18.1862 126.639 18.0323C123.426 17.4463 120.356 17.9131 117.341 19.0477C116.127 19.5046 115.652 20.3636 115.346 21.5057C114.264 25.565 113.189 29.5945 110.348 32.9959C108.353 35.3843 107.042 38.2097 106.598 41.2933C105.824 46.656 107.279 49.8364 111.847 52.6817C112.024 52.7934 112.207 52.9001 112.354 53.2601C111.901 53.2105 111.41 53.2552 111.006 53.0938C108.629 52.1404 106.281 51.1399 104.333 49.4317C102.924 48.1953 101.132 47.885 99.2789 47.7385C96.9447 47.5523 94.7853 48.1953 92.5564 48.6944C90.523 49.1512 88.379 49.1561 86.2839 49.3622C86.2608 49.2381 86.2351 49.1139 86.2119 48.9898C87.7672 48.5553 89.3225 48.1208 91.0526 47.6392C90.7441 47.9768 90.5384 48.2028 90.176 48.6C93.2531 48.0265 95.5616 45.4395 98.865 46.4053C98.8496 46.2612 98.8341 46.1172 98.8187 45.9732C97.8316 45.9732 96.8393 46.0254 95.8572 45.9584C94.9472 45.8963 94.0372 45.7498 93.1503 45.5487C92.9343 45.499 92.667 45.0993 92.6593 44.8535C92.6079 42.9641 92.613 41.0748 92.6001 39.1854C92.5821 36.4494 93.3328 33.9567 95.2788 31.9134C97.6465 29.4281 97.8727 26.5581 97.0166 23.4894C96.5539 21.8259 96.0886 20.1451 95.3971 18.5661C94.9112 17.4588 94.0397 16.5104 93.1657 15.2392L93.1734 15.2367Z" fill="#E7AB25"/>
<path d="M176.402 23.194C176.292 23.626 176.305 23.7898 176.227 23.8519C173.523 25.9995 174.114 29.2122 173.369 31.9953C172.225 36.2756 173.076 40.7644 171.675 45.0547C170.801 47.7261 172.163 50.117 174.022 52.1702C174.711 52.93 175.554 53.6351 175.397 54.7523C172.726 54.293 170.145 53.5507 167.438 54.3327C167.122 54.4246 166.451 54.2036 166.322 53.9479C165.369 52.0709 164.369 50.1964 163.672 48.2276C163.227 46.9664 163.297 45.5388 163.096 44.1907C162.96 43.277 162.829 42.3509 162.569 41.4671C162.235 40.3275 161.772 39.2251 161.202 38.1278C161.528 39.7862 161.862 41.4447 162.173 43.1082C162.248 43.5029 162.384 43.9598 162.253 44.3073C161.533 46.2265 161.932 48.106 162.302 50.0127C162.77 52.4086 160.705 55.6337 158.256 56.4182C155.901 57.173 153.474 57.754 151.194 58.6751C149.327 59.4298 147.61 60.5396 145.867 61.5575C145.186 61.9548 144.615 62.5333 143.7 63.2632C145.343 60.1449 146.757 57.3617 149.065 55.0229C150.574 53.4985 151.939 51.7134 152.87 49.8166C154.364 46.7802 155.677 43.6171 156.618 40.3846C157.227 38.2966 157.088 35.9975 157.189 33.7879C157.274 31.8811 157.734 30.2251 159.636 29.2494C162.405 27.8293 164.266 25.5575 165.945 23.0897C166.479 22.3027 167.217 21.6447 167.862 20.9297C167.996 21.0141 168.132 21.101 168.266 21.1854C168.068 21.533 167.873 21.8806 167.67 22.2257C166.13 24.8003 164.675 27.4742 164.654 30.4833C164.639 32.5912 165.186 34.7189 165.618 36.8094C166.176 39.5107 166.87 42.1846 167.693 44.9305C167.693 44.1236 167.88 43.2621 167.659 42.5173C166.765 39.5107 166.598 36.5562 167.305 33.4552C167.646 31.9556 167.14 30.2773 167.009 28.5617C170.294 28.3035 172.608 25.7264 175.335 23.832C175.598 23.6508 175.883 23.5018 176.397 23.194H176.402Z" fill="#E7AB25"/>
<path d="M252.762 50.3367C251.158 50.0239 249.549 49.7359 247.952 49.3908C246.345 49.0432 244.764 48.5913 243.153 48.2711C241.435 47.9309 239.595 45.9695 239.219 43.6705C238.741 40.7508 238.968 37.918 240.965 35.4551C241.273 35.0752 241.515 34.6482 241.788 34.241C241.723 34.1144 241.659 33.9878 241.595 33.8611C241.194 33.9952 240.602 34.0126 240.425 34.2832C239.885 35.11 239.261 35.9963 239.114 36.9249C238.731 39.3505 238.569 41.8109 238.348 44.2589C238.142 46.5455 238.196 48.8769 237.744 51.1138C237.052 54.5202 235.106 55.9428 231.548 56.206C230.628 56.273 229.721 56.5213 228.8 56.5709C227.919 56.6181 227.027 56.5138 226.14 56.4766C226.14 56.3524 226.14 56.2308 226.14 56.1066C227.019 55.9825 227.942 55.9775 228.767 55.7044C230.165 55.2402 231.551 54.694 232.852 54.0211C234.351 53.249 234.829 51.9058 234.178 50.3988C233.461 48.7353 232.595 47.129 231.803 45.4953C230.749 43.318 230.261 41.081 230.749 38.6603C231.073 37.054 231.867 35.7455 232.967 34.5613C237.106 30.1047 237.214 29.6032 235.405 23.8184C234.862 22.0854 234.091 20.3649 233.919 18.5946C233.641 15.7718 234.813 13.2964 236.88 11.273C237.433 10.7318 238.14 10.3395 239.034 10.0465C238.62 11.0198 238.124 11.9706 237.816 12.9737C237.505 13.9817 237.235 15.0369 237.196 16.0796C237.111 18.4159 238.695 19.8931 241.111 20.0322C242.857 20.1315 244.618 20.2283 246.327 20.5486C249.433 21.1345 251.07 23.2895 250.937 26.3235C250.919 26.7356 250.932 27.1478 250.914 27.5599C250.777 30.6832 250.42 31.1822 247.523 32.3243C250.433 33.156 250.541 33.5309 248.225 35.5742C245.87 37.6498 244.549 39.9513 245.77 43.1169C246.515 45.0534 247.849 46.5158 249.461 47.7596C250.533 48.5864 251.749 49.2344 252.901 49.9643C252.855 50.0884 252.808 50.2151 252.762 50.3392V50.3367ZM242.896 24.5781C242.896 25.39 242.872 26.1571 242.901 26.9243C242.939 27.8975 243.019 28.8683 243.081 29.8465C244.322 30.0402 244.872 29.5461 244.88 28.4661C244.885 27.6865 244.842 26.9069 244.816 26.1273C244.78 24.9952 244.135 24.5384 242.896 24.5781Z" fill="#E7AB25"/>
<path d="M213.786 31.5161C215.413 32.0276 215.118 33.0132 214.614 34.0187C213.336 36.5661 212.863 39.2549 213.087 42.0629C213.2 43.5004 212.65 44.5928 211.485 45.4965C209.274 47.2121 209.668 50.0723 212.254 51.2292C214.614 52.2844 216.999 53.2924 219.372 54.3227C219.357 54.4245 219.339 54.5263 219.323 54.6281C216.552 54.2507 213.704 54.1365 211.028 53.424C208.287 52.694 205.506 51.6935 203.135 50.2237C201.166 49.0022 199.686 46.9936 198.169 45.1912C197.668 44.5953 197.536 43.5476 197.575 42.7233C197.709 39.9004 198.254 37.1669 200.002 34.776C200.439 34.1776 200.791 33.4949 201.045 32.8047C201.498 31.5782 201.033 30.4783 200.123 29.6491C197.547 27.2954 195.968 24.2987 195.207 21.1258C194.703 19.0328 194.069 17.0789 193.169 15.1523C193.056 14.9114 193.2 14.5564 193.225 14.256C193.529 14.3181 193.927 14.2858 194.12 14.4596C197.693 17.6896 202.416 18.7746 206.655 20.7683C208.395 21.5876 210.015 22.675 211.593 23.7699C212.729 24.5594 213.704 25.5649 214.758 26.4662C216.989 28.3779 216.876 29.6168 214.321 31.1313C214.187 31.2107 214.066 31.315 213.786 31.5186V31.5161ZM207.601 34.8529C207.076 34.9994 206.483 35.0069 206.138 35.2924C204.84 36.3625 204.123 40.4665 205.004 42.2441C205.516 41.7451 206.231 41.3727 206.367 40.8563C206.866 38.9644 207.174 37.0229 207.603 34.8529H207.601ZM209.241 30.1357L209.125 30.6049C209.619 30.302 210.38 30.0861 210.526 29.6689C210.657 29.2965 210.223 28.5815 209.83 28.2364C208.927 27.4369 207.979 26.63 206.907 26.0863C205.416 25.3291 203.791 24.8201 202.043 25.1081C203.369 25.848 204.83 26.3321 206.043 27.1589C207.238 27.9732 208.184 29.1302 209.238 30.1382L209.241 30.1357Z" fill="#E7AB25"/>
<path d="M165.184 20.0011C165.11 20.2866 165.133 20.6615 164.95 20.8452C161.721 24.0629 158.485 27.278 155.207 30.4485C153.737 31.8687 152.652 33.2714 153.02 35.5233C153.369 37.6609 152.637 39.6993 151.102 41.3602C149.21 43.4085 148.451 45.8317 148.415 48.518C148.41 48.9699 148.379 49.4242 148.338 49.8761C148.128 52.2124 146.675 53.7095 144.277 53.9255C140.577 54.2607 137.366 53.1409 134.621 50.7451C132.531 48.9202 132.593 46.5591 133.307 44.3296C133.95 42.3236 134.924 40.3125 136.21 38.6242C138.043 36.2185 138.891 33.6761 138.595 30.7713C138.516 29.9942 138.269 29.0458 137.734 28.5293C135.454 26.3296 133.33 23.8767 130.135 22.8165C128.878 22.3994 127.551 22.176 126.256 21.8631C126.266 21.7216 126.276 21.5826 126.287 21.4411C127.801 21.5106 129.369 21.3567 130.811 21.7018C132.953 22.2132 135.086 22.9034 137.068 23.832C139.811 25.1156 142.629 25.91 145.66 26.0615C146.66 26.1111 147.166 26.7914 146.634 27.8093C145.302 30.3567 145.181 33.0927 144.793 35.8262C144.598 37.2016 143.726 38.6093 142.814 39.739C141.215 41.7178 140.192 43.8728 139.762 46.3133C139.678 46.7975 139.626 47.3015 139.657 47.7881C139.703 48.5503 139.611 49.5434 140.732 49.536C140.991 49.536 141.418 48.4758 141.472 47.8775C141.732 44.9652 142.567 42.3136 144.672 40.104C146.056 38.654 146.613 36.8962 146.788 34.9225C146.953 33.0579 147.475 31.2256 147.827 29.376C148.048 28.2165 149.05 27.8516 149.978 27.494C150.95 27.1191 151.986 26.8858 153.004 26.6276C157.089 25.5898 160.457 23.2882 163.809 20.9544C164.284 20.6242 164.757 20.2891 165.233 19.9589L165.187 19.9961L165.184 20.0011Z" fill="#E7AB25"/>
<path d="M192.958 19.3779C192.313 20.9073 191.781 22.387 191.074 23.7848C190.269 25.3738 189.961 27.0199 190.097 28.7503C190.128 29.1327 190.308 29.5548 190.549 29.8651C191.11 30.5901 191.711 31.2927 192.362 31.9457C193.727 33.3186 193.981 34.8232 193.29 36.6033C191.238 41.8742 192.58 45.6778 197.565 48.6571C200.598 50.4695 203.683 52.2 206.773 53.9206C207.418 54.2806 208.192 54.4246 208.896 54.6902C209.161 54.7895 209.398 54.9608 209.645 55.0974C209.598 55.229 209.552 55.3605 209.506 55.4921C207.704 55.1694 205.878 54.9285 204.105 54.499C202.457 54.0968 200.824 53.5779 199.251 52.9548C197.063 52.0858 194.814 51.8524 192.48 51.8301C191.835 51.8251 191.004 51.3881 190.585 50.8916C189.431 49.5211 188.452 48.0166 187.4 46.5641C186.899 45.8739 186.853 45.8715 184.719 46.507C185.428 47.8353 186.138 49.1114 186.791 50.4149C187.015 50.8593 187.092 51.3708 187.238 51.8524C186.724 51.9691 186.189 52.2323 185.698 52.1727C184.192 51.9865 183.03 52.6022 181.971 53.4836C180.356 54.8292 178.817 56.2618 177.161 57.5578C176.403 58.1512 175.441 58.5087 174.32 59.107C175.259 57.6248 176.156 56.5001 176.727 55.2389C177.852 52.7537 178.845 50.2039 177.996 47.3983C177.467 45.648 177.858 43.9523 178.464 42.3062C179.236 40.2232 179.775 38.1501 179.369 35.8982C179.212 35.0292 179.495 34.0932 179.48 33.1895C179.464 32.2908 179.41 31.3771 179.218 30.4982C178.829 28.7131 177.991 27.3029 175.66 27.4394C175.683 27.3054 175.709 27.1713 175.732 27.0372C177.002 26.9429 178.282 26.9032 179.541 26.7393C180.516 26.6127 181.608 26.5531 182.405 26.0839C184.806 24.6687 187.079 23.0574 189.418 21.5429C190.508 20.8378 191.637 20.1823 192.961 19.3705L192.958 19.3779ZM186.089 28.7851C185.122 30.4287 185.243 32.179 185.796 33.7879C186.462 35.7244 186.12 37.3978 185.197 39.1059C184.757 39.9178 184.434 40.7843 184.058 41.6284C184.153 41.7302 184.251 41.8345 184.346 41.9363C184.95 41.6582 185.955 41.4993 186.086 41.0822C186.696 39.1581 187.94 37.3084 187.246 35.1484C187.012 34.416 186.619 33.7134 186.5 32.9686C186.284 31.5857 186.218 30.1829 186.086 28.7876L186.089 28.7851Z" fill="#E7AB25"/>
<path d="M257.665 50.0773C256.349 47.9943 254.506 46.4276 252.29 45.3203C250.092 44.2229 249.089 41.8519 250.357 39.7664C251.336 38.1576 252.467 36.5388 253.878 35.285C257.233 32.3007 257.961 28.733 256.891 24.6936C256.1 21.7018 254.796 18.9509 252.048 17.0715C251.701 16.8331 251.47 16.4384 251.218 16.1504C254.673 17.6525 258.053 19.2414 261.534 20.5945C263.657 21.4188 265.933 21.8905 268.143 22.4988C272.1 23.5887 273.562 26.213 272.285 29.9694C272.164 30.322 272.033 30.6696 271.927 31.0271C271.377 32.8991 270.501 34.4309 268.251 34.3465C268.562 35.1087 269.164 35.866 269.056 36.514C268.935 37.2315 268.156 37.8398 267.683 38.5076C266.655 39.96 265.46 41.3405 264.688 42.912C264.298 43.7065 264.313 45.072 264.781 45.797C266.005 47.6864 267.562 49.3772 269.023 51.1176C269.403 51.5694 269.917 51.917 270.37 52.3118C270.305 52.4136 270.241 52.5154 270.177 52.6171C269.568 52.3763 268.956 52.1429 268.354 51.8897C266.436 51.0828 264.552 50.2014 262.603 49.4715C258.909 48.0861 258.136 45.8367 258.765 42.2889C259.089 40.474 259.943 38.8577 261.393 37.5816C261.771 37.2489 262.169 36.9038 262.421 36.4891C262.591 36.2111 262.524 35.7989 262.562 35.4464C262.172 35.4538 261.634 35.3049 261.413 35.496C259.495 37.1471 257.652 38.8503 256.963 41.3926C256.534 42.9741 256.997 44.3893 257.498 45.8467C257.989 47.2718 258.385 48.7267 258.868 50.328C258.331 50.261 258.058 50.2287 257.786 50.194C257.742 50.1592 257.701 50.122 257.665 50.0823V50.0773ZM264.981 26.1931C264.449 27.9708 263.948 29.6417 263.444 31.325C264.632 31.7843 265.282 31.5087 265.596 30.5156C265.858 29.6914 266.146 28.8745 266.385 28.0453C266.683 27.01 266.28 26.3992 264.979 26.1931H264.981Z" fill="#E7AB25"/>
<path d="M278.959 18.8094C279.864 20.0383 280.694 21.3294 281.694 22.4814C282.65 23.5812 283.694 24.6538 284.866 25.5302C286.802 26.9777 289.003 27.7374 291.537 27.3178C292.823 27.1043 294.134 27.0323 295.535 26.9975C292.255 29.448 292.355 33.2119 291.311 36.5164C290.689 38.4877 289.923 40.4019 288.293 41.8246C285.416 44.3346 285.519 47.4629 286.229 50.7228C287.008 54.293 289.99 56.0235 292.774 57.9103C292.964 58.0395 293.147 58.1785 293.332 58.3126C293.28 58.3995 293.231 58.4888 293.18 58.5757C292.578 58.2679 291.974 57.9625 291.378 57.6472C288.468 56.1103 285.483 54.6852 282.671 52.992C280.213 51.5123 278.064 49.7023 277.889 46.512C277.864 46.0378 276.73 45.6207 275.949 45.0621C275.188 46.8894 274.47 48.2897 274.738 50.0698C275.008 51.8748 276.583 52.4433 277.884 53.3297C277.751 53.4935 277.619 53.6549 277.486 53.8188C276.252 53.2527 274.92 52.8232 273.807 52.0883C272.203 51.0281 270.645 49.8538 269.27 48.533C267.421 46.7578 267.378 45.4196 269.188 43.6469C270.964 41.9065 272.835 40.181 274.933 38.8403C278.799 36.3724 280.954 33.0728 281.146 28.6411C281.188 27.6877 280.874 26.6971 280.602 25.7561C279.979 23.6185 279.27 21.5057 278.625 19.3754C278.54 19.0974 278.63 18.7672 278.637 18.4618C278.745 18.5785 278.853 18.6927 278.959 18.8094ZM278.861 41.3057C280.38 42.6091 281.198 41.4795 282.234 40.8761C285.116 39.1928 287.355 33.4874 286.501 30.4411C286.45 35.645 283.638 39.1134 278.861 41.3081V41.3057Z" fill="#E7AB25"/>
<path d="M41.9439 19.1271C41.3912 19.4648 40.8668 19.862 40.2806 20.1252C37.7819 21.2524 36.3295 24.7456 37.6225 27.4022C38.4092 29.0184 38.931 30.7738 39.3963 32.5092C39.7228 33.7282 39.7588 35.0193 39.6662 36.4096C38.7099 33.2739 36.9336 31.243 33.2369 31.1884C33.4271 31.6427 33.5274 31.9978 33.7125 32.3081C34.967 34.4284 34.9567 36.5362 33.7176 38.6565C33.5711 38.9073 33.4708 39.1804 33.3449 39.4411C31.6867 42.8871 32.0723 44.5506 35.1649 46.9812C37.5403 48.8482 37.9182 48.3343 36.2498 51.7456C35.3012 53.6822 33.697 54.7622 31.9001 55.7851C29.7356 57.0165 27.6456 58.3671 25.5196 59.6582C24.8538 60.0629 24.2085 60.5147 23.4913 60.8126C23.1725 60.9442 22.7072 60.7481 22.3088 60.7009C22.3679 60.3434 22.2908 59.8146 22.5067 59.6557C23.3011 59.0722 24.1623 58.5484 25.0543 58.1114C27.6353 56.8477 28.8358 54.7224 28.7536 52.0733C28.715 50.8146 28.1751 49.4242 27.4399 48.3641C25.9823 46.2687 25.6841 44.2353 26.8384 41.971C27.4194 40.8264 27.9901 39.667 28.4142 38.4629C28.9798 36.854 28.0003 34.1006 26.6507 33.2093C26.499 33.11 26.2291 33.0579 26.062 33.1125C24.3036 33.691 22.5376 34.2968 21.9412 36.2631C21.4527 37.8695 21.0466 39.4982 20.5813 41.112C20.4836 41.4521 20.2985 41.7699 20.1545 42.0976C19.9823 42.0629 19.81 42.0306 19.6404 41.9958C19.7381 39.7067 19.7509 37.4102 19.9617 35.131C20.1571 33.0008 19.8229 31.176 18.4373 29.3561C17.1236 27.6306 15.7046 26.4438 13.4964 26.1533C13.1519 26.1087 12.8434 25.8207 12.4912 25.632C13.8306 24.8995 15.0131 25.4035 16.2213 25.8629C18.1416 26.5978 20.1211 27.0471 22.2059 26.707C22.4887 26.6598 22.7509 26.5059 23.0209 26.4016C24.535 25.8157 26.0594 25.2571 27.5582 24.6389C30.2214 23.5415 32.8718 22.4193 35.5197 21.2871C37.5763 20.4058 39.6174 19.4946 41.6663 18.5958C41.7588 18.7696 41.8539 18.9459 41.9465 19.1197L41.9439 19.1271Z" fill="#E7AB25"/>
<path d="M54.9726 46.9316C55.0266 46.661 55.0112 46.3506 55.15 46.1296C56.096 44.6152 55.988 43.0833 55.0266 41.6855C53.3325 39.2176 53.6949 36.9211 54.9726 34.3663C56.8107 30.6919 57.0266 26.7939 55.1654 23.0425C54.5921 21.8905 53.3787 21.024 52.4276 20.0557C52.0008 19.6212 51.4996 19.2563 50.79 18.653C52.6178 19.0825 54.0806 19.4276 55.5407 19.7702C58.5073 20.4654 61.4894 20.1799 64.474 19.9167C66.8416 19.7081 69.1732 19.8347 70.8853 21.6496C71.5229 22.325 72.0267 23.3652 72.0807 24.2665C72.2555 27.1589 72.1141 30.0538 70.4277 32.6259C68.8879 34.9771 68.8236 37.3208 69.9599 39.9103C71.1964 42.7283 70.4689 43.7834 67.2786 44.3346C65.4303 44.6549 63.5536 44.8535 61.6822 45.0248C59.9983 45.1763 58.4045 45.4643 57.0086 46.4946C56.5124 46.8621 55.8364 47.0036 55.2425 47.2494C55.1525 47.1451 55.0626 47.0408 54.97 46.9365L54.9726 46.9316ZM63.366 24.3608C63.2811 28.0378 62.8673 31.5608 61.0343 34.8107C60.1089 36.4494 60.2374 38.1625 61.2169 39.7614C61.4122 40.0816 61.9289 40.2207 62.2966 40.4441C62.4894 40.0196 62.9444 39.5081 62.8287 39.1879C62.1192 37.2041 62.4071 35.3594 63.4611 33.6016C64.9033 31.1983 65.2323 28.5641 65.3069 25.8679C65.3454 24.4378 65.0215 24.1746 63.366 24.3583V24.3608Z" fill="#E7AB25"/>
<path d="M95.5274 23.4969C94.7511 25.0958 94.1804 26.8337 93.1469 28.2613C91.8025 30.1184 90.4091 31.839 90.7459 34.2894C90.7947 34.6544 90.5402 35.0591 90.4991 35.1956C88.2215 34.575 86.0441 33.9692 83.8564 33.3907C82.8667 33.1275 82.296 33.6514 82.0337 34.4856C81.8255 35.1485 81.6816 35.8461 81.6379 36.5388C81.5299 38.1948 82.7638 39.0514 84.3551 38.3761C85.3628 37.949 86.2549 37.2762 87.242 36.7945C87.6071 36.6158 88.0903 36.663 88.5197 36.6059C88.4194 36.9758 88.4322 37.4351 88.2035 37.7008C86.7459 39.389 86.9875 40.9755 88.2832 42.634C88.8718 43.3888 89.2575 44.295 89.7356 45.1316C89.6508 45.1962 89.5659 45.2632 89.4785 45.3278C89.2138 45.2434 88.9438 45.1639 88.6816 45.0696C87.5068 44.65 86.3988 44.0591 85.062 44.7816C84.5196 45.0745 83.7253 45.015 83.0517 44.9876C80.0774 44.861 77.6327 46.1272 75.1519 47.5002C72.3139 49.0693 69.337 50.405 66.4141 51.8276C66.265 51.8996 66.0439 51.8376 65.7148 51.5868C66.4141 51.0481 67.1082 50.5068 67.81 49.973C69.1133 48.9824 70.4038 47.9769 71.7329 47.0185C74.6532 44.9132 75.1725 41.9314 74.882 38.741C74.6429 36.1416 75.5992 34.0188 77.1185 31.9805C79.2574 29.1079 80.1391 25.9052 79.3396 22.402C78.6815 19.517 76.7226 17.799 73.7792 17.0839C73.2907 16.9647 72.8023 16.8456 72.3139 16.7214C72.2933 16.7165 72.2856 16.6619 72.2008 16.4781C72.5966 16.426 72.9437 16.354 73.2959 16.3391C76.9052 16.1777 80.2728 17.2379 83.6816 18.1639C85.0466 18.5363 86.4965 18.7027 87.9181 18.7821C89.5814 18.874 90.6045 17.4464 90.1778 15.845C90.1495 15.7358 90.1958 15.6092 90.206 15.49C90.9001 15.5148 91.53 16.2671 91.6791 17.2925C91.8796 18.6679 91.9567 20.0682 92.2626 21.4188C92.4451 22.2232 92.9644 22.9581 93.4272 23.9264C92.7793 24.0356 92.0313 24.2417 91.2755 24.2665C90.0389 24.3087 88.7922 24.2814 87.5556 24.1896C86.7124 24.1275 86.4014 24.4577 86.3371 25.2125C86.2446 26.3123 86.098 27.4097 85.9746 28.5071C88.3114 28.7504 92.5325 26.3372 95.057 23.3355C95.2112 23.3901 95.368 23.4447 95.5223 23.4994L95.5274 23.4969Z" fill="#E7AB25"/>
<path d="M125.641 24.2541C126.803 24.5073 128.008 24.6439 129.119 25.0337C133.615 26.6201 135.24 31.7073 132.343 35.3868C130.145 38.1799 127.875 40.8935 126.461 44.1782C125.78 45.7597 124.918 47.2866 123.985 48.749C123.129 50.0921 121.864 50.4099 120.137 50.2535C117.057 49.973 114.702 48.7812 112.906 46.3978C111.157 44.0814 110.756 41.5539 112.152 39.0761C113.299 37.0403 114.826 35.1757 116.361 33.3757C117.602 31.9208 118.654 30.4312 119.24 28.6212C120.209 25.632 122.353 24.2367 125.643 24.2516L125.641 24.2541ZM117.469 43.4458C117.9 43.9597 118.201 44.4041 118.607 44.7244C118.679 44.7815 119.386 44.3818 119.463 44.1037C120.579 40.171 123.183 37.1222 125.708 33.9964C126.515 32.9959 126.975 31.6899 127.392 30.461C127.535 30.0414 127.062 29.4281 126.872 28.9018C126.453 29.2717 125.793 29.5721 125.659 30.0215C125.119 31.8141 124.086 33.2714 122.875 34.6891C121.631 36.1465 120.453 37.6808 119.438 39.2921C118.654 40.536 118.163 41.9512 117.469 43.4458Z" fill="#E7AB25"/>
<path d="M212.647 48.8756C213.876 47.2867 215.11 45.7027 216.334 44.1087C217.198 42.9816 217.804 41.7998 217.881 40.325C218.033 37.4227 219.347 34.9101 221.257 32.7377C223.339 30.3716 223.624 28.949 221.763 25.6892C220.493 23.4621 219.308 21.1805 218.252 18.8541C217.804 17.871 217.82 16.6991 217.55 15.629C217.254 14.4621 216.874 13.3151 216.478 11.9843C217.208 12.2351 217.987 12.4114 218.678 12.7565C221.141 13.9879 223.614 14.1841 226.203 13.119C227.727 12.4908 229.301 11.9694 230.869 11.4431C231.455 11.247 232.087 11.1725 232.504 11.0856C231.815 11.895 231.18 12.9104 230.29 13.6403C227.704 15.7656 226.298 18.2061 227.45 21.5429C227.961 23.0252 228.393 24.5396 228.995 25.9896C229.889 28.1471 229.642 30.0861 228.121 31.8886C227.501 32.6235 226.879 33.3609 226.311 34.133C224.498 36.6009 224.28 39.3344 225.067 42.1573C225.586 44.0169 227.388 44.8436 228.792 45.9385C229.995 46.8795 231.367 47.6169 232.725 48.4834C232.177 49.2952 231.509 49.5162 230.47 49.3523C227.146 48.8235 223.956 47.5796 220.501 47.7286C218.627 47.8081 216.835 48.0638 215.09 48.7565C214.365 49.0445 213.537 49.0892 212.758 49.2456C212.722 49.1214 212.686 48.9948 212.65 48.8707L212.647 48.8756Z" fill="#E7AB25"/>
<path d="M55.2574 49.3175C53.9001 50.3975 52.4297 51.3261 50.679 51.7333C49.4913 52.0088 48.2548 52.0784 47.0594 52.3242C43.1674 53.131 39.8589 55.229 36.355 56.8974C35.846 57.1407 35.3524 57.4213 34.8357 57.6919C34.7586 57.4933 34.6891 57.3766 34.7097 57.3592C36.9539 55.4251 39.2059 53.4985 41.4553 51.5694C41.9129 51.1771 42.5221 50.8593 42.7843 50.3677C43.9077 48.2748 43.9309 46.1495 42.6609 44.0814C42.4013 43.6568 42.0774 43.2695 41.7869 42.8599C40.8717 41.5639 40.6738 40.2207 41.4296 38.7782C41.8152 38.0433 42.1288 37.2761 42.4681 36.5189C43.2393 34.8008 43.283 33.0629 43.0054 31.2033C42.5761 28.3308 41.9334 25.6221 39.6583 23.5241C39.4475 23.3305 39.3139 23.0549 39.1571 22.8091C39.1185 22.7495 39.1391 22.6552 39.1313 22.5733C42.1622 22.4913 43.8872 20.803 44.9514 18.2508C45.5401 16.8406 46.2034 15.4626 47.0003 14.1443C47.0003 15.3931 46.9566 16.6419 47.0183 17.8883C47.0517 18.571 47.2599 19.2488 47.4039 19.9241C47.9849 22.6577 48.5993 25.3837 49.1391 28.1247C49.3294 29.093 49.4605 30.0935 49.4245 31.0742C49.3782 32.3305 49.1983 33.5893 48.9592 34.8257C48.8358 35.4613 48.4605 36.0497 48.2008 36.6604C47.3756 38.6119 47.5067 40.4044 48.9643 42.0927C49.8898 43.1653 50.7613 44.3098 51.4425 45.5338C51.8127 46.1967 51.9746 47.1402 51.8127 47.8726C51.5633 48.9997 52.0877 49.2281 52.9849 49.2232C53.6944 49.2182 54.4014 49.0941 55.1109 49.0246C55.1598 49.1239 55.206 49.2207 55.2549 49.32L55.2574 49.3175Z" fill="#E7AB25"/>
<path d="M143.904 59.5242C143.881 59.8867 143.958 60.2913 143.817 60.6067C142.709 63.1142 140.899 64.949 138.151 65.7882C137.788 65.8999 137.066 65.8676 136.984 65.6938C136.788 65.2842 136.724 64.6908 136.886 64.2737C137.287 63.2309 138.269 62.8138 139.32 62.5258C141.151 62.0218 142.655 61.061 143.904 59.5267V59.5242Z" fill="#E7AB25"/>
<path d="M122.176 16.1031C122.728 15.9517 123.273 15.7158 123.839 15.6612C126.114 15.4402 128.392 15.2466 130.672 15.115C131.191 15.0852 131.819 15.2118 132.232 15.4924C132.585 15.7307 132.795 16.2769 132.875 16.7188C132.903 16.8728 132.366 17.2576 132.052 17.3023C131.194 17.419 130.274 17.5928 129.456 17.4165C127.567 17.0093 125.739 16.3737 123.744 16.5873C123.245 16.6419 122.71 16.3986 122.191 16.2893C122.186 16.2273 122.181 16.1652 122.176 16.1031Z" fill="#E7AB25"/>
<path d="M217.848 52.3266C219.57 51.7928 221.274 51.192 223.025 50.7625C223.516 50.6433 224.244 50.8866 224.665 51.2094C225.015 51.4775 225.233 52.1106 225.2 52.56C225.177 52.8629 224.634 53.3445 224.29 53.3743C222.141 53.563 220.015 53.3843 217.948 52.7909C217.914 52.637 217.881 52.4805 217.848 52.3266Z" fill="#E7AB25"/>
<path d="M205.809 56.4479C206.125 56.2617 206.228 56.1475 206.325 56.1525C208.215 56.2617 210.112 56.3238 211.986 56.5646C212.274 56.6019 212.564 57.4733 212.603 57.9748C212.618 58.1685 211.947 58.5757 211.564 58.6079C209.366 58.7892 207.624 57.7886 205.809 56.4455V56.4479Z" fill="#E7AB25"/>
<path d="M278.959 18.8094C278.851 18.6927 278.743 18.5785 278.637 18.4618C278.257 17.4389 277.82 16.4334 277.514 15.3906C277.326 14.7476 277.087 13.9233 278.085 13.6453C279.067 13.3722 279.488 14.0549 279.673 14.8072C279.923 15.8251 279.974 16.8927 280.259 17.8982C280.499 18.7324 280.954 19.5071 281.139 20.4505C280.414 19.9018 279.686 19.3556 278.961 18.8069L278.959 18.8094Z" fill="#E7AB25"/>
<path d="M238.55 11.6764C238.609 10.363 239.126 9.23581 240.228 8.52078C240.678 8.22781 241.462 8.29981 242.059 8.40409C242.192 8.42892 242.298 9.30781 242.195 9.74726C241.912 10.9613 241.097 11.8402 239.969 12.4187C239.588 12.6124 239.131 12.6695 238.709 12.7886C238.658 12.4187 238.604 12.0488 238.552 11.6788L238.55 11.6764Z" fill="#E7AB25"/>
<path d="M218.832 12.4312C216.999 11.6715 215.349 11.0806 213.799 10.3035C213.164 9.98571 213.269 9.32777 213.999 9.0075C215.005 8.56557 218.534 10.2067 218.822 11.2469C218.891 11.5002 218.832 11.7832 218.832 12.4337V12.4312Z" fill="#E7AB25"/>
<path d="M290.192 54.4966C291.743 54.5711 293.236 54.4792 294.635 54.7846C295.21 54.9088 295.586 55.8845 296.074 56.5002C294.779 57.7838 293.629 56.7932 292.629 56.4779C291.689 56.1824 290.336 56.0186 290.192 54.4941V54.4966Z" fill="#E7AB25"/>
<path d="M251.015 15.0182C249.239 15.1449 247.65 15.8723 246.172 14.8395C245.789 14.5713 245.594 14.0549 245.313 13.6527C245.748 13.392 246.162 12.9575 246.625 12.9029C247.727 12.7713 248.82 12.7813 249.483 13.9854C249.704 14.3876 250.339 14.5788 251.018 15.0182H251.015Z" fill="#E7AB25"/>
<path d="M165.231 19.9638H163.84C164.303 18.9682 164.709 18.0595 165.151 17.1658C165.292 16.8802 165.485 16.4855 165.737 16.416C166.346 16.2447 167.007 16.2372 167.644 16.1627C167.668 16.6469 167.868 17.2204 167.668 17.5928C167.359 18.1663 166.791 18.6182 166.303 19.0899C165.958 19.4226 165.557 19.7007 165.182 20.0035L165.228 19.9638H165.231Z" fill="#E7AB25"/>
<path d="M111.366 50.9189C112.595 51.1027 113.852 51.192 115.048 51.4974C115.909 51.7159 116.459 52.4583 115.924 53.2701C115.739 53.5532 114.734 53.5432 114.215 53.3669C113.364 53.0814 112.577 52.5849 111.814 52.1007C111.513 51.9096 111.348 51.5198 111.122 51.2218C111.204 51.12 111.284 51.0183 111.366 50.9189Z" fill="#E7AB25"/>
<path d="M172.361 59.7228C170.639 61.21 168.51 60.6464 166.904 59.6906C166.775 59.6136 166.667 59.3604 166.7 59.2263C166.731 59.1071 166.968 58.9755 167.125 58.9582C168.009 58.8638 168.898 58.8142 169.783 58.7223C170.819 58.6155 171.909 58.3474 172.361 59.7204V59.7228Z" fill="#E7AB25"/>
<path d="M91.2349 50.2386C90.1063 51.0306 89.0189 51.8921 87.8287 52.5873C87.2117 52.9473 86.4353 52.7909 86.1063 52.046C85.767 51.2813 86.4276 51.0281 86.9958 50.8493C88.3068 50.4397 89.6333 50.0797 90.9547 49.6998C91.0498 49.8786 91.1423 50.0598 91.2374 50.2386H91.2349Z" fill="#E7AB25"/>
<path d="M16.5121 27.7647C14.9594 28.0155 13.3295 28.3035 11.692 28.5269C11.273 28.584 10.7665 28.5492 10.4041 28.368C9.91819 28.1222 9.75881 27.7448 10.4349 27.3948C12.1033 26.5332 14.5198 26.2974 16.5121 27.7647Z" fill="#E7AB25"/>
<path d="M267.817 53.0267C269.465 52.8082 270.699 53.3172 271.704 54.2929C272.373 54.9409 272.103 55.7404 271.496 56.2369C270.828 56.7831 270.398 56.1922 269.997 55.6733C269.332 54.8118 268.614 53.9875 267.817 53.0267Z" fill="#E7AB25"/>
<path d="M196.984 15.6836C196.059 14.8494 195.079 14.0599 194.241 13.1512C193.997 12.8855 194.154 12.2748 194.125 11.8229C194.714 11.8527 195.483 11.6665 195.855 11.9545C196.969 12.8185 197.131 14.1418 197.285 15.418C197.185 15.5049 197.082 15.5942 196.981 15.6811L196.984 15.6836Z" fill="#E7AB25"/>
<path d="M123.831 14.8369C125.355 13.1064 127.654 12.2846 128.898 12.9724C128.219 14.7947 126.186 15.5718 123.831 14.8369Z" fill="#E7AB25"/>
<path d="M160.305 21.8011C160.983 20.453 161.649 19.0577 162.402 17.7095C162.526 17.4886 163.102 17.3123 163.354 17.4041C163.603 17.496 163.829 17.9454 163.852 18.2557C163.973 19.7355 162.102 21.5404 160.305 21.8011Z" fill="#E7AB25"/>
<path d="M143.978 58.1562C143.33 58.5981 142.759 59.0723 142.114 59.4125C141.253 59.8668 140.363 60.3137 139.428 60.5595C139.132 60.6365 138.479 60.1225 138.32 59.7476C138.224 59.5267 138.718 58.8067 139.05 58.7322C140.582 58.3871 142.147 58.1885 143.705 57.9551C143.787 57.9427 143.893 58.0916 143.975 58.1562H143.978Z" fill="#E7AB25"/>
<path d="M126.664 20.5721C125.559 20.957 124.549 21.3269 123.528 21.6596C122.703 21.9302 121.962 21.8309 121.736 20.8974C121.664 20.597 121.852 20.083 122.104 19.8943C122.744 19.4152 125.914 19.9117 126.664 20.5721Z" fill="#E7AB25"/>
<path d="M214.123 51.1795C215.328 50.6731 216.552 50.1988 217.735 49.6452C218.493 49.2926 219.051 49.5235 219.295 50.1666C219.562 50.8717 219.128 51.4129 218.359 51.4477C216.932 51.5097 215.501 51.465 214.071 51.465C214.089 51.3707 214.105 51.2739 214.123 51.1795Z" fill="#E7AB25"/>
<path d="M68.1751 48.9054C67.3499 49.5161 66.5889 50.256 65.6738 50.6855C65.1673 50.9214 64.3961 50.6334 63.7432 50.5812C64.0722 50.0127 64.2727 49.1238 64.756 48.9451C65.756 48.5776 66.9051 48.59 67.9926 48.446C68.0543 48.6 68.116 48.7514 68.1751 48.9054Z" fill="#E7AB25"/>
<path d="M58.0158 48.4833C57.9001 50.5614 56.0107 51.7432 53.6533 51.1746C55.1752 50.4521 55.7639 48.4163 58.0158 48.4833Z" fill="#E7AB25"/>
<path d="M277.56 20.3238C276.084 19.1669 274.722 18.1018 273.164 16.8802C275.665 16.2397 277.691 17.995 277.56 20.3238Z" fill="#E7AB25"/>
<path d="M203.729 55.8272C204.785 56.9469 205.77 57.9897 206.754 59.0299C206.032 59.673 205.017 59.4768 203.914 58.4788C203.068 57.7141 202.963 56.7831 203.729 55.8247V55.8272Z" fill="#E7AB25"/>
<path d="M76.2628 19.3209C75.3913 19.3134 74.3064 19.306 73.219 19.296C72.9234 19.296 72.5789 19.3829 72.3398 19.2712C71.9954 19.1098 71.5558 18.8367 71.4812 18.5388C71.4272 18.3253 71.854 17.8784 72.165 17.7294C73.0853 17.2825 74.6175 17.8163 75.3373 18.6505C75.6509 19.0155 76.1445 19.2389 76.2628 19.3209Z" fill="#E7AB25"/>
<path d="M193.197 13.2281C191.991 13.3522 189.909 12.1506 189.333 11.0631C190.695 9.859 191.043 10.0477 193.197 13.2281Z" fill="#E7AB25"/>
<path d="M253.115 15.8027C252.243 15.0356 251.344 14.2932 250.524 13.4789C250.382 13.3398 250.483 12.6943 250.642 12.6174C250.961 12.4659 251.521 12.3889 251.768 12.5627C252.768 13.2654 253.449 14.2014 253.524 15.4254C253.387 15.552 253.251 15.6786 253.115 15.8027Z" fill="#E7AB25"/>
<path d="M257.665 50.0772C257.701 50.1169 257.742 50.1566 257.786 50.1889C258.549 51.182 258.629 52.2297 257.922 53.7467C257.151 52.2397 256.529 51.0256 255.909 49.8115C255.958 49.6998 256.007 49.5881 256.053 49.4739L257.665 50.0747V50.0772Z" fill="#E7AB25"/>
<path d="M235.892 9.64053C236.069 8.48108 236.164 7.68412 236.323 6.90205C236.39 6.5768 236.635 6.00329 236.732 6.0157C237.154 6.07032 237.904 6.30867 237.902 6.46508C237.881 7.18508 237.789 7.97211 237.447 8.59529C237.208 9.02977 236.521 9.23832 235.892 9.64053Z" fill="#E7AB25"/>
<path d="M116.438 56.9347C115.384 56.0806 114.42 55.301 113.456 54.5215C116.145 54.0696 117.274 54.9857 116.438 56.9347Z" fill="#E7AB25"/>
<path d="M293.337 25.9026C294.694 25.2943 295.82 24.7903 297.134 24.2019C296.936 26.3768 295.453 27.0074 293.337 25.9026Z" fill="#E7AB25"/>
<path d="M216.416 14.2386C215.506 13.9184 214.676 13.6999 213.917 13.3399C213.131 12.9675 213.395 12.5032 214.02 12.2251C215.208 11.6988 216.645 12.2773 216.416 14.2386Z" fill="#E7AB25"/>
<path d="M19.1567 40.6725C18.9202 41.6656 18.7557 42.6836 18.4061 43.6369C18.3032 43.92 17.676 44.0243 17.2904 44.2129C17.1798 43.9225 16.8868 43.5476 16.9845 43.3564C17.4858 42.3807 18.0873 41.4546 18.6529 40.5087C18.82 40.5633 18.9896 40.6154 19.1567 40.67V40.6725Z" fill="#E7AB25"/>
<path d="M289.252 53.1905C290.016 53.1086 290.782 52.9696 291.543 52.9795C291.795 52.982 292.044 53.3693 292.293 53.5803C292.034 53.7814 291.759 54.1663 291.514 54.1489C290.733 54.0943 289.964 53.8882 289.19 53.7417C289.211 53.558 289.232 53.3743 289.252 53.1905Z" fill="#E7AB25"/>
<path d="M260.578 53.4537L258.997 50.6805L259.593 50.3602C260.133 51.2739 260.671 52.1875 261.21 53.1012C261 53.2179 260.789 53.3371 260.578 53.4537Z" fill="#E7AB25"/>
<path d="M69.0652 47.8279C68.7258 47.9074 68.3454 48.1134 68.0549 48.029C67.7181 47.9297 67.4585 47.5772 67.168 47.3338L67.3916 46.9465C67.9443 47.0756 68.497 47.2023 69.0523 47.3314L69.0677 47.8279H69.0652Z" fill="#E7AB25"/>
</svg>
