<svg width="1300" height="259" viewBox="0 0 1300 259" fill="none" xmlns="http://www.w3.org/2000/svg">
<path d="M24.6338 88.1706C24.6338 88.1706 49.1672 95.399 79.0876 87.793C109.008 80.1871 133.862 61.4182 154.644 56.603C154.644 56.603 131.574 64.209 135.12 84.4991C138.665 104.789 147.289 116.444 147.038 136.231C147.038 136.231 140.187 106.814 118.89 113.413C118.89 113.413 128.269 124.061 122.95 145.621C117.632 167.181 115.848 173.769 125.741 186.19C135.634 198.611 151.853 194.299 151.853 194.299C151.853 194.299 133.599 203.426 124.472 211.032C116.145 217.963 93.2815 239.18 70.2121 247.54C70.2121 247.54 100.636 233.083 99.1146 212.553C97.5934 192.023 84.6577 183.902 89.9875 164.63C95.3174 145.358 97.5935 133.955 87.4484 121.774C87.4484 121.774 64.8823 120.756 59.5524 163.109C59.5524 163.109 63.8643 122.037 57.528 111.377C51.1916 100.717 39.9028 90.3323 24.6338 88.1706Z" fill="#FEF7E6"/>
<path d="M145.39 74.4801C145.39 74.4801 163.644 71.8152 170.873 55.4596C178.101 39.104 187.606 28.8333 187.606 28.8333C187.606 28.8333 177.335 40.6252 183.797 68.384C190.259 96.1427 192.798 108.449 187.857 129.369C182.916 150.288 187.514 161.039 193.691 169.686C196.23 173.231 200.141 181.329 202.063 187.94C205.357 199.355 219.562 195.043 219.562 195.043C219.562 195.043 153.637 207.978 126.507 235.108C126.507 235.108 160.739 203.163 163.53 196.564C166.321 189.964 165.554 184.898 162.26 175.77C158.966 166.643 155.672 154.474 161.757 131.908C167.842 109.342 163.027 81.9602 145.402 74.4801H145.39Z" fill="#FEF7E6"/>
<path d="M285.739 45.9549C283.486 45.5889 314.893 43.1642 341.268 52.5429C367.643 61.9217 372.71 51.0217 372.207 39.8701C372.207 39.8701 378.543 46.9729 379.058 57.8728C379.572 68.7727 385.909 76.3786 385.909 76.3786C385.909 76.3786 367.906 71.5635 356.755 80.4389L352.191 103.005C352.191 103.005 390.735 94.6328 394.533 77.8997C394.533 77.8997 393.011 92.0937 385.657 100.718C378.303 109.341 372.47 118.469 373.739 133.429C373.739 133.429 355.737 123.535 340.776 125.057C340.776 125.057 334.188 134.95 334.188 144.832C334.188 144.832 349.4 152.186 361.067 139.502C361.067 139.502 350.67 157.756 369.176 179.053C369.176 179.053 340.022 167.901 312.88 183.868C285.739 199.835 261.915 209.98 261.915 209.98C261.915 209.98 301.981 187.162 304.005 155.972C306.029 124.782 319.468 111.858 320.738 92.5855C322.008 73.3134 323.277 52.0168 285.751 45.932L285.739 45.9549Z" fill="#FEF7E6"/>
<path d="M382.352 38.8527C383.118 39.619 418.105 66.4856 442.696 44.6858C442.696 44.6858 435.09 53.8129 434.323 77.1454C433.557 100.478 432.551 105.545 420.884 119.739C409.218 133.932 405.158 166.392 405.158 166.392C405.158 166.392 413.267 129.369 431.533 115.427C449.798 101.484 444.72 51.5254 444.72 51.5254C444.72 51.5254 455.62 64.7128 477.18 53.0465C498.739 41.3803 543.357 51.2738 543.357 51.2738C543.357 51.2738 491.888 40.1223 482.761 72.3188C473.634 104.515 469.322 107.821 459.943 122.781C450.565 137.741 424.441 175.519 471.861 214.818C471.861 214.818 436.108 185.149 409.23 182.107L382.352 179.065C382.352 179.065 384.891 171.459 383.118 147.12C381.345 122.781 417.35 105.03 400.617 71.5639C383.884 38.0978 382.363 38.8527 382.363 38.8527H382.352Z" fill="#FEF7E6"/>
<path d="M529.666 71.0603C529.666 71.0603 552.484 68.0179 584.177 81.2053C615.87 94.3927 627.788 88.8113 627.788 88.8113C627.788 88.8113 617.14 101.999 616.637 115.438C616.133 128.877 614.864 140.291 602.946 157.779C591.028 175.267 592.549 192.263 592.549 192.263C592.549 192.263 591.531 199.114 596.358 198.851C601.185 198.588 600.167 191.749 600.167 191.749C600.167 191.749 600.933 169.434 612.336 158.534C623.739 147.634 624.757 131.656 624.757 118.72C624.757 105.785 628.817 98.6933 628.817 98.6933C628.817 98.6933 634.651 101.987 650.366 94.6329C666.081 87.2786 706.661 60.9038 706.661 60.9038C706.661 60.9038 676.237 85.2428 665.841 98.9334C655.444 112.624 651.384 118.457 651.647 136.46C651.91 154.462 633.392 167.135 631.105 188.443C628.817 209.751 623.247 219.118 596.369 219.633C569.491 220.148 558.591 202.649 562.903 183.376C567.215 164.104 571.527 153.456 583.193 140.017C594.86 126.578 587.757 71.5521 529.689 71.0488L529.666 71.0603Z" fill="#FEF7E6"/>
<path d="M720.341 62.9395C720.341 62.9395 695.064 90.1835 687.63 100.214C676.73 114.923 666.585 111.366 666.585 111.366C666.585 111.366 672.166 124.302 665.315 159.666C662.822 172.556 669.501 193.899 650.481 214.818C632.249 234.879 608.643 239.546 608.643 239.546C608.643 239.546 620.057 239.168 643.252 233.461C671.377 226.541 695.739 221.669 695.739 221.669C695.739 221.669 691.301 213.56 692.319 201.893C693.52 188.1 689.277 178.687 688.133 167.661C686.029 147.348 688.385 125.068 688.385 125.068C688.385 125.068 687.367 145.861 694.469 161.839C701.572 177.817 701.057 191.76 704.1 202.156C707.142 212.553 707.908 220.662 707.908 220.662C707.908 220.662 725.911 214.578 750.25 218.375C750.25 218.375 735.793 204.181 737.577 178.824C739.476 151.671 733.014 101.747 758.371 63.2025C758.371 63.2025 733.265 102.25 712.987 101.747C712.987 101.747 717.299 107.328 717.047 123.81C716.795 140.291 717.299 178.584 717.299 183.399C717.299 183.399 710.733 150.276 706.399 139.536C701.583 127.618 696.505 99.9855 720.341 62.9624V62.9395Z" fill="#FEF7E6"/>
<path d="M925.22 24.6588C925.22 24.6588 950.577 38.6012 972.64 30.9953C994.702 23.3893 1012.19 16.2867 1011.69 17.5562C1011.18 18.8258 981.767 28.2044 981.767 48.2315C981.767 68.2585 1000.27 83.4818 992.163 109.594C984.054 135.705 975.934 138.748 978.221 157.013C980.509 175.279 1000.79 207.727 1000.79 207.727C1000.79 207.727 972.388 181.867 923.71 189.473C923.71 189.473 944.755 174.009 942.216 152.198C939.677 130.387 958.446 118.217 958.697 104.778C958.949 91.3392 950.943 71.8841 945.51 53.0466C941.701 39.8592 925.22 24.6474 925.22 24.6474V24.6588Z" fill="#FEF7E6"/>
<path d="M9.85611 104.984C4.98374 105.544 0.591753 102.239 0.0541912 97.5839C-0.48337 92.9289 3.03937 88.7085 7.91174 88.148C12.7841 87.5876 34.3094 94.7931 34.3094 94.7931C34.3094 94.7931 14.7399 104.424 9.85611 104.984Z" fill="#FEF7E6"/>
<path d="M131.31 248.227C129.423 250.789 125.591 251.155 122.744 249.062C119.896 246.969 119.118 243.194 121.005 240.632C122.892 238.07 136.629 231.688 136.629 231.688C136.629 231.688 133.186 245.665 131.31 248.227Z" fill="#FEF7E6"/>
<path d="M257.935 200.808C256.425 200.202 255.648 198.577 256.197 197.194C256.746 195.81 258.438 195.169 259.948 195.775C261.458 196.381 266.65 201.78 266.65 201.78C266.65 201.78 259.445 201.414 257.924 200.808H257.935Z" fill="#FEF7E6"/>
<path d="M524.416 71.1291C522.781 71.2092 521.408 70.054 521.34 68.5557C521.271 67.0574 522.529 65.7878 524.165 65.7078C525.8 65.6277 532.766 68.3955 532.766 68.3955C532.766 68.3955 526.052 71.0605 524.428 71.1291H524.416Z" fill="#FEF7E6"/>
<path d="M685.377 53.5385C685.652 51.2854 687.676 49.6841 689.918 49.9586C692.148 50.2331 693.738 52.269 693.475 54.5221C693.2 56.7753 687.47 65.6279 687.47 65.6279C687.47 65.6279 685.114 55.7917 685.388 53.55L685.377 53.5385Z" fill="#FEF7E6"/>
<path d="M193.017 51.8915C191.713 50.9193 191.37 49.158 192.262 47.9457C193.154 46.7333 194.938 46.5617 196.253 47.5339C197.569 48.5061 201.206 55.0597 201.206 55.0597C201.206 55.0597 194.332 52.8637 193.017 51.8915Z" fill="#FEF7E6"/>
<path d="M252.17 213.023C249.254 213.938 246.211 212.542 245.388 209.9C244.564 207.27 246.269 204.399 249.197 203.484C252.125 202.569 266.033 204.182 266.033 204.182C266.033 204.182 255.087 212.108 252.17 213.023Z" fill="#FEF7E6"/>
<path d="M533.544 30.7202C535.397 28.2841 538.679 27.655 540.875 29.3249C543.071 30.9948 543.357 34.3231 541.504 36.7593C539.652 39.1954 527.391 45.9779 527.391 45.9779C527.391 45.9779 531.691 33.1679 533.544 30.7317V30.7202Z" fill="#FEF7E6"/>
<path d="M278.637 55.8261C275.572 55.849 273.079 53.6415 273.056 50.885C273.033 48.1286 275.492 45.8755 278.557 45.8412C281.622 45.8069 294.478 51.3769 294.478 51.3769C294.478 51.3769 281.703 55.8032 278.649 55.8261H278.637Z" fill="#FEF7E6"/>
<path d="M552.13 37.171C556.225 36.6106 559.953 39.1498 560.456 42.8441C560.96 46.5384 558.043 49.981 553.948 50.53C549.854 51.079 531.68 45.8178 531.68 45.8178C531.68 45.8178 548.035 37.72 552.13 37.1596V37.171Z" fill="#FEF7E6"/>
<path d="M601.871 257.663C598.337 259.813 593.911 258.978 591.966 255.799C590.033 252.619 591.314 248.296 594.849 246.146C598.383 243.995 617.14 241.536 617.14 241.536C617.14 241.536 605.394 255.513 601.871 257.663Z" fill="#FEF7E6"/>
<path d="M914.789 230.728C918.095 233.21 918.964 237.636 916.722 240.61C914.481 243.584 909.997 243.984 906.692 241.502C903.386 239.02 894.156 222.504 894.156 222.504C894.156 222.504 911.484 228.246 914.789 230.728Z" fill="#FEF7E6"/>
<path d="M1190.01 57.9414C1186.57 55.6425 1185.46 51.2733 1187.53 48.1738C1189.6 45.0742 1194.06 44.4224 1197.49 46.7213C1200.92 49.0203 1211.07 64.9869 1211.07 64.9869C1211.07 64.9869 1193.44 60.2289 1190.01 57.93V57.9414Z" fill="#FEF7E6"/>
<path d="M1288.5 225.97C1292.58 226.61 1295.42 230.11 1294.85 233.793C1294.26 237.476 1290.49 239.935 1286.4 239.295C1282.32 238.654 1266.42 228.395 1266.42 228.395C1266.42 228.395 1284.41 225.329 1288.5 225.97Z" fill="#FEF7E6"/>
<path d="M1272.95 215.527C1275.14 214.726 1277.54 215.767 1278.31 217.86C1279.07 219.953 1277.92 222.298 1275.73 223.098C1273.55 223.899 1262.8 222.961 1262.8 222.961C1262.8 222.961 1270.76 216.328 1272.95 215.527Z" fill="#FEF7E6"/>
<path d="M1294.41 82.8413C1296.59 82.0407 1299 83.0816 1299.76 85.1746C1300.53 87.2677 1299.37 89.6123 1297.19 90.4129C1295.01 91.2136 1284.25 90.2757 1284.25 90.2757C1284.25 90.2757 1292.21 83.642 1294.41 82.8413Z" fill="#FEF7E6"/>
<path d="M1186.54 221.314C1189.12 223.167 1189.69 226.77 1187.82 229.344C1185.96 231.917 1182.37 232.512 1179.8 230.647C1177.22 228.795 1170.29 215.71 1170.29 215.71C1170.29 215.71 1183.97 219.45 1186.54 221.303V221.314Z" fill="#FEF7E6"/>
<path d="M1200.35 38.5206C1197.87 33.1335 1199.7 26.9916 1204.43 24.8071C1209.17 22.6225 1215.02 25.2188 1217.51 30.6173C1219.99 36.0043 1220.63 63.0539 1220.63 63.0539C1220.63 63.0539 1202.82 43.9076 1200.34 38.5206H1200.35Z" fill="#FEF7E6"/>
<path d="M704.065 44.2284C706.97 41.289 711.465 41.0259 714.118 43.6336C716.772 46.2528 716.566 50.7592 713.661 53.6986C710.756 56.6381 693.153 63.5692 693.153 63.5692C693.153 63.5692 701.16 47.1678 704.065 44.2284Z" fill="#FEF7E6"/>
<path d="M1041.42 2.39C1044.33 -0.549429 1048.83 -0.812513 1051.48 1.79523C1054.13 4.41441 1053.93 8.9207 1051.02 11.8601C1048.12 14.7996 1030.51 21.7307 1030.51 21.7307C1030.51 21.7307 1038.52 5.32943 1041.42 2.39Z" fill="#FEF7E6"/>
<path d="M921.858 19.9691C920.016 18.528 919.319 16.3549 920.291 15.1082C921.263 13.8615 923.551 14.033 925.381 15.4741C927.211 16.9153 932.918 25.5163 932.918 25.5163C932.918 25.5163 923.699 21.4103 921.858 19.9691Z" fill="#FEF7E6"/>
<path d="M1085.25 37.6625C1083.41 36.2214 1082.71 34.0483 1083.69 32.8016C1084.66 31.5549 1086.95 31.7264 1088.78 33.1675C1090.61 34.6086 1096.31 43.2096 1096.31 43.2096C1096.31 43.2096 1087.09 39.1036 1085.25 37.6625Z" fill="#FEF7E6"/>
<path d="M598.909 240.53C596.415 240.713 594.254 238.894 594.082 236.481C593.911 234.068 595.798 231.963 598.291 231.792C600.785 231.62 611.582 235.841 611.582 235.841C611.582 235.841 601.414 240.358 598.92 240.541L598.909 240.53Z" fill="#FEF7E6"/>
<path d="M733.151 246.683C730.795 247.518 728.233 246.34 727.421 244.064C726.608 241.788 727.867 239.26 730.234 238.425C732.602 237.59 744.119 238.803 744.119 238.803C744.119 238.803 735.507 245.86 733.151 246.695V246.683Z" fill="#FEF7E6"/>
<path d="M895.425 234.513C895.769 236.995 894.099 239.271 891.708 239.603C889.318 239.935 887.088 238.196 886.744 235.714C886.401 233.233 889.901 222.184 889.901 222.184C889.901 222.184 895.082 232.032 895.425 234.513Z" fill="#FEF7E6"/>
<path d="M825.131 23.652C823.633 21.6505 823.987 18.8483 825.92 17.3957C827.853 15.9432 830.644 16.3892 832.142 18.3908C833.64 20.3924 835.939 31.7497 835.939 31.7497C835.939 31.7497 826.629 25.6421 825.131 23.6406V23.652Z" fill="#FEF7E6"/>
<path d="M810.468 31.5554C806.773 29.2221 805.012 25.3562 806.545 22.92C808.077 20.4953 812.321 20.4152 816.026 22.7599C819.721 25.0931 832.05 39.8818 832.05 39.8818C832.05 39.8818 814.162 33.8886 810.468 31.5554Z" fill="#FEF7E6"/>
<path d="M1021.29 206.903C1025.14 208.985 1027.15 212.725 1025.78 215.253C1024.41 217.78 1020.19 218.135 1016.33 216.053C1012.49 213.972 999.197 200.041 999.197 200.041C999.197 200.041 1017.44 204.822 1021.28 206.903H1021.29Z" fill="#FEF7E6"/>
<path d="M476.745 218.249C478.678 219.873 478.929 222.744 477.317 224.654C475.704 226.576 472.833 226.816 470.9 225.203C468.967 223.591 464.221 212.851 464.221 212.851C464.221 212.851 474.812 216.625 476.745 218.249Z" fill="#FEF7E6"/>
<path d="M476.539 208.162C478.095 208.482 479.124 209.831 478.838 211.181C478.552 212.531 477.077 213.366 475.521 213.045C473.966 212.725 468.053 208.608 468.053 208.608C468.053 208.608 474.972 207.83 476.528 208.15L476.539 208.162Z" fill="#FEF7E6"/>
<path d="M56.7835 172.797C56.5661 175.633 54.1757 177.761 51.4422 177.555C48.7086 177.349 46.6727 174.879 46.8786 172.042C47.0845 169.206 53.6267 157.768 53.6267 157.768C53.6267 157.768 57.0008 169.96 56.7835 172.797Z" fill="#FEF7E6"/>
<path d="M32.5022 110.199C31.4957 112.052 29.254 112.773 27.4812 111.812C25.7084 110.851 25.1022 108.575 26.1087 106.722C27.1152 104.87 34.9613 99.105 34.9613 99.105C34.9613 99.105 33.5087 108.347 32.5022 110.199Z" fill="#FEF7E6"/>
<path d="M274.588 62.4369C252.022 57.6217 228.952 67.252 195.727 55.0825C195.727 55.0825 214.553 64.8502 217.789 92.6089C221.335 123.033 206.215 134.424 211.705 152.45C215.25 164.116 211.201 180.849 211.201 180.849C211.201 180.849 229.707 176.537 252.537 176.285C275.366 176.034 287.021 174.764 281.439 151.947C275.858 129.129 281.691 125.068 288.793 110.36C295.896 95.6512 297.166 67.2521 274.599 62.4369H274.588ZM253.406 124.302C247.127 134.95 249.597 144.649 250.935 149.979C252.273 155.309 247.893 156.636 244.473 157.391C244.473 157.391 236.673 139.514 245.239 122.975C253.795 106.425 253.417 93.1236 250.947 81.709C250.947 81.709 261.401 78.0948 261.218 87.5993C261.023 97.1039 259.696 113.654 253.417 124.302H253.406Z" fill="#FEF7E6"/>
<path d="M557.299 92.6085C545.381 79.9358 517.485 82.9781 517.485 82.9781C508.861 85.2656 506.333 87.7933 503.291 94.896C500.248 101.999 500.248 110.622 480.473 132.422C460.698 154.234 469.058 174.009 474.64 185.675C480.221 197.341 517.233 216.614 526.875 189.221C536.505 161.84 546.902 150.676 558.316 136.231C569.731 121.774 569.216 105.293 557.299 92.6199V92.6085ZM524.976 134.767C511.091 146.365 504.251 169.571 504.251 169.571C504.251 169.571 505.395 176.422 499.31 176.228C493.226 176.033 494.37 168.622 494.37 168.622C494.37 168.622 502.17 145.987 514.339 132.296C526.509 118.606 528.602 114.797 529.368 109.479C529.368 109.479 528.796 102.628 533.932 102.445C539.067 102.262 539.067 107.775 539.067 107.775C539.067 107.775 538.873 123.181 524.999 134.778L524.976 134.767Z" fill="#FEF7E6"/>
<path d="M741.649 243.481C741.74 243.458 742.026 243.32 742.461 243.069C741.832 243.355 741.523 243.503 741.649 243.481Z" fill="#FEF7E6"/>
<path d="M857.773 200.121C829.374 185.927 824.559 161.074 826.583 149.659C828.608 138.245 834.441 129.884 822.271 111.881C810.102 93.8785 828.859 60.1494 828.859 60.1494C787.524 95.903 752.537 95.3997 752.537 95.3997C769.522 97.9388 775.606 125.32 768.767 145.61C761.916 165.9 762.934 178.825 764.707 204.181C766.319 227.217 746.795 240.633 742.449 243.08C747.139 240.919 770.368 230.602 779.163 222.447C789.812 212.554 806.796 210.655 806.796 210.655C799.191 205.84 792.088 183.651 792.088 183.651L803.502 181.878C803.502 181.878 812.63 194.814 816.942 199.881C821.253 204.948 823.026 209.26 823.026 209.26C846.61 197.342 906.2 223.717 906.2 223.717C906.2 223.717 886.173 214.338 857.773 200.133V200.121ZM799.454 161.577L788.554 163.601C788.554 163.601 800.723 148.39 798.699 137.227C796.674 126.064 792.362 118.206 795.908 102.239C795.908 102.239 795.908 117.703 803.262 127.596C810.617 137.49 799.454 161.577 799.454 161.577Z" fill="#FEF7E6"/>
<path d="M911.781 181.352C929.029 167.158 914.824 159.541 926.238 137.741C937.653 115.93 923.951 112.384 923.951 112.384C939.414 102.239 940.089 49.1004 897.324 52.5431C853.21 56.0887 828.928 30.5945 829.626 31.4981C852.695 61.4185 860.816 90.8358 865.883 105.03C870.95 119.235 869.177 118.469 862.337 129.62C855.486 140.772 849.916 149.647 852.958 166.392C856.001 183.125 845.101 180.849 845.101 180.849L865.391 194.036C885.681 207.223 945.259 217.62 945.259 217.62C928.526 214.326 894.545 195.557 911.793 181.363L911.781 181.352ZM896.066 136.471C894.797 139.514 890.485 144.58 890.233 154.222C889.982 163.864 880.854 162.846 880.854 162.846C879.082 144.592 887.717 131.324 888.46 131.153C896.833 129.128 897.336 133.44 896.066 136.483V136.471ZM897.336 110.359C896.833 93.3748 877.812 69.5392 875.525 68.2696C873.237 67 879.333 69.2875 885.67 71.8152C892.006 74.3429 904.438 91.339 906.463 100.466C908.487 109.593 897.336 110.359 897.336 110.359Z" fill="#FEF7E6"/>
<path d="M1027.15 168.679C1028.92 144.34 1038.3 124.302 1038.3 124.302C1038.3 124.302 1040.59 120.493 1043.88 121.763C1047.18 123.032 1045.66 126.829 1045.66 126.829C1045.66 126.829 1037.03 150.162 1036.28 164.356C1035.51 178.561 1035.26 182.358 1035.26 182.358L1102.71 202.9C1102.71 202.9 1064.41 185.652 1062.14 162.834C1059.85 140.017 1080.91 131.896 1081.41 122.517C1081.79 115.506 1073.54 115.015 1069.34 115.209C1074.11 114.603 1084.44 112.315 1085.22 103.76C1086.24 92.6085 1090.55 63.4428 1065.95 59.8972C1041.36 56.3516 999.518 39.8702 1032.98 10.2014C1032.98 10.2014 1010.05 24.4525 1009.65 50.5185C1009.4 67.2515 1025.12 80.439 1021.57 101.736C1018.21 121.911 1002.8 134.195 1001.79 145.095C999.541 169.342 994.188 175.267 994.188 175.267L1053.26 213.045C1053.26 213.045 1025.37 193.018 1027.15 168.668V168.679ZM1050.23 75.8755C1063.42 72.5815 1059.61 89.8177 1059.11 98.19C1058.6 106.562 1049.21 104.023 1049.21 104.023C1053.53 88.5596 1050.23 75.8755 1050.23 75.8755Z" fill="#FEF7E6"/>
<path d="M1126.81 154.474C1117.68 165.889 1124.52 186.682 1124.52 186.682L1182.59 216.351C1182.59 216.351 1174.73 212.039 1154.95 191.76C1135.18 171.47 1156.22 156.258 1166.1 144.089C1176 131.919 1161.29 128.625 1161.29 128.625C1175.23 130.146 1181.58 111.641 1181.58 111.641C1181.58 111.641 1192.99 76.6534 1161.29 72.8447C1129.6 69.036 1086.13 40.6139 1087.25 41.4031C1107.03 55.3454 1132.39 103.783 1110.59 121.019C1088.79 138.256 1083.46 147.897 1083.46 156.521C1083.46 164.951 1081.17 172.236 1081.17 172.236C1111.34 184.154 1129.86 221.429 1129.86 221.429C1129.86 221.429 1123.27 206.469 1116.67 184.406C1110.07 162.343 1119.46 149.67 1119.46 149.67L1133.66 133.189C1133.66 133.189 1135.94 130.146 1139.49 132.686C1143.04 135.225 1140.51 137.752 1140.51 137.752C1140.51 137.752 1135.94 143.082 1126.82 154.485L1126.81 154.474ZM1147.85 89.3147C1160.79 89.3147 1156.22 99.208 1153.68 109.09C1151.14 118.983 1142.27 114.923 1142.27 114.923L1147.85 89.3147Z" fill="#FEF7E6"/>
<path d="M1272.1 124.051C1275.64 101.988 1293.91 93.1121 1293.91 93.1121C1293.91 93.1121 1274.64 102.239 1249.79 94.885C1224.94 87.5307 1207.2 53.2983 1207.2 53.2983C1226.22 90.8247 1223.43 104.767 1217.6 124.039C1211.76 143.311 1189.96 153.456 1177.28 164.105C1169.44 170.693 1157.76 183.125 1157.76 183.125L1208.22 221.418C1208.22 221.418 1207.45 220.148 1197.07 207.475C1186.68 194.803 1200.11 178.825 1200.11 178.825L1213.3 183.388C1210.51 192.012 1214.06 200.121 1214.57 205.199C1215.07 210.266 1208.98 209.26 1208.98 209.26L1274.66 238.414C1226.48 212.039 1242.97 175.279 1252.09 164.631C1261.22 153.982 1268.57 146.125 1272.12 124.062L1272.1 124.051ZM1219.11 164.368L1210.73 161.074C1247.77 140.498 1246.67 114.569 1246.1 109.662C1246.05 109.388 1246.03 109.113 1245.98 108.839C1245.98 108.839 1246.04 109.125 1246.1 109.662C1251.23 141.676 1219.11 164.368 1219.11 164.368Z" fill="#FEF7E6"/>
<path d="M1070.27 48.7915C1066.42 47.3047 1064.38 43.2787 1065.73 39.8017C1067.08 36.3247 1071.29 34.7235 1075.14 36.2218C1079 37.7201 1092.36 51.1019 1092.36 51.1019C1092.36 51.1019 1074.12 50.2899 1070.27 48.7915Z" fill="#FEF7E6"/>
</svg>
