<svg width="708" height="640" viewBox="0 0 708 640" fill="none" xmlns="http://www.w3.org/2000/svg">
<path d="M90.3146 79.2507C90.3146 79.2507 98.1124 79.6872 105.7 84.0184C113.288 88.3495 120.431 89.6505 120.431 89.6505C120.431 89.6505 112.843 85.3194 115.664 75.5659C118.484 65.8123 116.965 53.9016 101.579 51.5178C86.1933 49.1339 64.529 48.9157 58.4603 66.9035C52.3917 84.8913 48.925 91.8245 61.7087 100.269C74.4924 108.713 75.3569 109.804 74.7106 118.256C74.0643 126.709 64.9571 125.19 65.3936 118.038C65.83 110.887 67.3409 108.075 67.3409 108.075C67.3409 108.075 63.8743 109.158 48.7068 103.525C33.5393 97.8932 22.703 96.3739 16.8525 96.1557C16.8525 96.1557 42.8564 103.089 45.0219 119.776C47.1875 136.462 69.2883 137.763 69.2883 137.763C69.2883 137.763 96.5931 142.313 97.4577 122.814C98.3222 103.316 99.6232 95.2996 93.5546 90.7418C87.4859 86.184 80.3344 81.2065 84.4557 73.6269C88.5771 66.0474 89.6599 65.1744 91.8255 66.2572C93.991 67.34 96.8113 70.1603 90.3062 79.2591L90.3146 79.2507Z" fill="#FEF7E6" stroke="#FEF7E6" stroke-width="0.695968" stroke-miterlimit="10"/>
<path d="M109.385 38.2979C108.462 37.9874 126.5 47.615 127.801 56.7138C129.102 65.8126 128.237 68.8512 128.237 68.8512C128.237 68.8512 131.704 65.1663 137.991 68.4147C137.991 68.4147 137.773 73.6188 125.426 89.8691C113.078 106.119 120.658 115.655 120.221 126.491C119.785 137.327 103.753 139.056 103.753 139.056C103.753 139.056 124.125 134.507 140.585 139.493C157.045 144.479 164.851 151.194 176.988 153.796C176.988 153.796 160.738 152.058 148.819 128.229C136.9 104.399 147.736 93.3442 153.587 84.0271C159.437 74.71 161.175 71.6799 161.384 68.4231L173.522 65.393C173.522 65.393 172.002 54.1286 176.552 48.9245C176.552 48.9245 173.085 54.5567 160.948 53.9103C160.948 53.9103 157.045 46.5406 162.895 46.7589C168.746 46.9771 170.483 47.8416 170.483 47.8416C170.483 47.8416 165.069 40.0438 171.13 33.1106C177.19 26.1774 193.448 17.9431 193.448 17.9431C193.448 17.9431 171.13 28.9977 158.564 30.945C145.999 32.8924 133.433 33.9752 136.245 43.0824L139.065 52.1812C139.065 52.1812 121.078 42.2178 109.377 38.3147L109.385 38.2979Z" fill="#FEF7E6" stroke="#FEF7E6" stroke-width="0.695968" stroke-miterlimit="10"/>
<path d="M177.853 31.8011C177.853 31.8011 186.305 43.0655 181.965 50.4352C181.965 50.4352 185.432 47.6149 196.487 47.4051C207.541 47.1952 211.872 46.9686 215.121 49.7889C215.121 49.7889 206.45 40.6901 212.3 29.8538C212.3 29.8538 207.315 35.0579 197.569 34.1849C187.824 33.312 177.853 31.8011 177.853 31.8011Z" fill="#FEF7E6" stroke="#FEF7E6" stroke-width="0.695968" stroke-miterlimit="10"/>
<path d="M186.742 52.6008L213.174 52.1643C213.174 52.1643 211.873 70.1521 200.391 83.3638C188.908 96.584 183.704 125.618 204.075 138.62C224.447 151.622 229.861 149.02 229.861 149.02C229.861 149.02 216.213 149.884 192.375 140.349C168.536 130.814 162.476 138.183 162.476 138.183C162.476 138.183 171.357 134.07 169.191 123.662C167.025 113.254 163.559 101.998 177.207 82.7092C190.855 63.4203 186.742 52.5924 186.742 52.5924V52.6008Z" fill="#FEF7E6" stroke="#FEF7E6" stroke-width="0.695968" stroke-miterlimit="10"/>
<path d="M441.987 87.485C441.987 87.485 451.304 82.9356 469.502 83.5819C487.699 84.2282 491.166 80.5518 491.166 80.5518C491.166 80.5518 478.164 82.9356 480.111 72.7539C482.059 62.5723 482.059 51.9543 461.041 50.8715C440.023 49.7887 432.435 57.8047 424.209 69.5056C415.983 81.2064 397.559 104.39 414.455 123.889C431.36 143.387 452.16 140.139 459.74 134.725C467.328 129.311 463.206 120.64 464.289 113.271C465.372 105.901 479.238 97.4568 479.238 97.4568C479.238 97.4568 469.703 102.661 457.138 101.36C444.572 100.059 438.503 95.9459 438.722 96.5922C438.94 97.2385 441.752 99.6223 441.542 104.826C441.332 110.031 446.091 121.295 441.542 122.596C436.993 123.897 431.36 118.265 432.443 108.293C433.526 98.3297 435.264 90.0954 443.28 79.9054C451.296 69.7238 451.077 63.6552 455.845 65.6025C460.613 67.5499 455.627 75.1378 441.978 87.485H441.987Z" fill="#FEF7E6" stroke="#FEF7E6" stroke-width="0.695968" stroke-miterlimit="10"/>
<path d="M467.336 10.7827L534.94 35.7037C534.94 35.7037 529.307 33.1017 529.954 40.0349C530.6 46.9682 530.818 51.2993 531.037 56.9399C531.037 56.9399 536.887 47.8411 550.535 51.526C564.183 55.2108 563.755 63.2268 561.153 69.2955C558.551 75.3642 538.616 98.9842 545.986 117.4C553.356 135.816 571.771 143.186 571.771 143.186C571.771 143.186 556.604 142.64 544.038 139.283C531.473 135.925 526.051 137.763 526.051 137.763C526.051 137.763 529.517 137.117 526.915 132.458C524.313 127.8 514.996 109.602 520.847 96.3821C526.697 83.162 534.604 71.8976 534.604 71.8976C534.604 71.8976 537.206 67.5664 534.604 66.1563C532.002 64.7461 528.972 69.1864 528.972 69.1864L513.913 93.1254C513.913 93.1254 507.198 102.006 512.285 117.719C517.38 133.432 519.436 134.943 522.148 136.462C522.148 136.462 516.734 135.379 507.845 138.091C498.964 140.802 478.483 141.994 478.483 141.994C478.483 141.994 486.608 139.392 489.538 136.034C492.467 132.677 491.922 131.485 489.974 126.826C488.027 122.168 480.112 105.162 492.358 86.2005C504.605 67.2391 507.744 62.2616 505.469 45.9021C503.194 29.5427 485.534 19.1429 467.336 10.7995V10.7827Z" fill="#FEF7E6" stroke="#FEF7E6" stroke-width="0.695968" stroke-miterlimit="10"/>
<path d="M578.822 29.5256C578.822 29.5256 585.756 37.1136 584.345 42.3093C582.935 47.5134 576.657 52.0628 576.657 52.0628C576.657 52.0628 585.646 47.9499 597.456 48.7053C609.266 49.4608 616.846 52.2811 616.846 52.2811C616.846 52.2811 610.45 47.6225 610.668 41.0167C610.886 34.4108 613.917 27.5867 613.917 27.5867C613.917 27.5867 607.42 34.4108 599.076 34.1925C590.733 33.9743 585.319 34.4108 578.814 29.534L578.822 29.5256Z" fill="#FEF7E6" stroke="#FEF7E6" stroke-width="0.695968" stroke-miterlimit="10"/>
<path d="M586.184 53.0286L610.341 53.2468C610.341 53.2468 611.533 68.1961 602.107 82.6082C592.68 97.0202 593.117 114.681 599.076 125.727C605.036 136.781 609.585 140.248 622.042 146.745C622.042 146.745 619.549 147.5 601.351 142.414C583.154 137.319 574.701 141.868 562.236 133.315C562.236 133.315 570.58 136.135 571.117 128.874C571.663 121.614 565.376 115.873 567.323 102.333C569.27 88.7943 581.517 78.4952 583.791 68.9683C586.066 59.433 586.175 53.0454 586.175 53.0454L586.184 53.0286Z" fill="#FEF7E6" stroke="#FEF7E6" stroke-width="0.695968" stroke-miterlimit="10"/>
<path d="M31.3823 198.207L77.3213 209.69C77.3213 209.69 79.9233 223.12 72.9901 240.671C66.0569 258.222 65.6204 271.871 65.6204 271.871C65.6204 271.871 71.9073 249.552 80.1416 238.287C80.1416 238.287 96.1736 214.449 84.4728 202.102C84.4728 202.102 90.9695 206.215 101.378 206.433C111.778 206.651 121.749 210.118 121.749 210.118C121.749 210.118 112.214 209.035 110.267 217.488C108.319 225.94 103.98 234.821 92.4972 252.59C81.0145 270.36 76.6834 292.242 104.198 305.244C104.198 305.244 85.3457 299.394 75.1641 299.175C64.9825 298.957 59.3503 292.679 38.9787 294.408C38.9787 294.408 51.116 291.378 46.9947 279.24C42.8734 267.103 53.0634 238.069 53.9279 230.271C54.7925 222.473 53.2816 206.651 31.3907 198.199L31.3823 198.207Z" fill="#FEF7E6" stroke="#FEF7E6" stroke-width="0.695968" stroke-miterlimit="10"/>
<path d="M101.798 192.575C101.798 192.575 115.446 194.312 129.53 201.455C143.615 208.607 159.001 207.952 159.001 207.952C159.001 207.952 154.452 210.118 154.233 215.54C154.015 220.962 151.631 231.572 142.969 246.093C134.307 260.614 134.516 269.931 134.516 272.315C134.516 274.699 133.652 280.113 138.201 280.113C142.751 280.113 141.886 273.398 141.886 273.398C141.886 273.398 141.886 256.711 152.286 243.281C162.686 229.851 163.55 211.645 163.769 208.833C163.987 206.021 157.482 202.983 157.482 202.983C157.482 202.983 168.1 207.532 179.582 204.72C191.065 201.9 196.697 200.171 205.15 199.735C205.15 199.735 195.614 199.953 190.629 211.872C185.643 223.791 185.643 229.205 170.475 257.156C155.308 285.107 183.259 296.59 189.974 298.756C189.974 298.756 182.604 300.057 167.009 295.935C151.413 291.814 141.878 297.236 141.878 297.236C141.878 297.236 146.209 292.25 144.043 287.701C144.043 287.701 138.839 297.455 126.492 294.853C114.145 292.25 108.076 283.798 109.805 269.503C111.534 255.209 119.122 243.718 123.235 235.702C127.348 227.686 140.568 201.036 101.781 192.583L101.798 192.575Z" fill="#FEF7E6" stroke="#FEF7E6" stroke-width="0.695968" stroke-miterlimit="10"/>
<path d="M288.794 208.607L315.444 209.043C315.444 209.043 316.527 223.346 305.48 240.679C294.434 258.012 292.697 278.812 310.03 289.212C327.363 299.612 333.432 299.612 333.432 299.612C333.432 299.612 323.678 302.86 307 298.747C290.321 294.634 269.077 288.129 261.934 290.295C261.934 290.295 273.416 287.693 272.333 280.978C271.251 274.263 267.348 258.012 277.101 242.845C286.855 227.678 288.802 216.841 288.802 208.607H288.794Z" fill="#FEF7E6" stroke="#FEF7E6" stroke-width="0.695968" stroke-miterlimit="10"/>
<path d="M282.078 182.393C282.078 182.393 292.478 194.958 283.161 205.576C283.161 205.576 289.011 202.756 302.232 203.411C315.452 204.066 318.264 204.275 321.512 206.231C321.512 206.231 315.015 201.027 316.098 195.613C317.181 190.199 323.031 186.296 323.031 186.296C323.031 186.296 318.045 190.199 308.947 190.199C299.848 190.199 291.395 192.365 282.078 182.401V182.393Z" fill="#FEF7E6" stroke="#FEF7E6" stroke-width="0.695968" stroke-miterlimit="10"/>
<path d="M89.8115 341.505L161.746 345.836C161.746 345.836 171.86 365.192 160.881 390.902C149.902 416.613 134.013 440.308 171.86 465.439C171.86 465.439 137.773 451.279 124.771 450.129C124.771 450.129 114.657 424.704 126.794 405.633C138.932 386.563 143.842 372.117 127.659 356.522C111.484 340.918 89.8115 341.497 89.8115 341.497V341.505Z" fill="#FEF7E6" stroke="#FEF7E6" stroke-width="0.695968" stroke-miterlimit="10"/>
<path d="M152.21 334.857C152.21 334.857 173.875 335.436 185.727 340.346C197.579 345.257 212.016 345.257 212.016 345.257C212.016 345.257 220.687 370.681 211.73 385.127C202.774 399.573 194.104 407.37 196.42 424.133C198.737 440.895 203.068 448.114 223.003 453.024C242.938 457.934 246.12 458.799 246.12 458.799L173.606 450.422C173.606 450.422 164.071 426.735 175.914 402.754C187.758 378.773 191.804 372.134 186.029 356.53C180.254 340.926 160.898 336.594 152.227 334.865L152.21 334.857Z" fill="#FEF7E6" stroke="#FEF7E6" stroke-width="0.695968" stroke-miterlimit="10"/>
<path d="M222.995 337.46C222.172 336.813 242.351 345.837 247.555 345.257C247.555 345.257 251.601 351.612 251.021 359.703C250.442 367.795 249.284 374.149 236.861 379.059C224.438 383.969 222.416 394.084 222.13 401.882C222.13 401.882 216.926 385.128 229.063 377.036C241.201 368.945 239.463 365.478 239.463 365.478L234.553 366.343C234.553 366.343 240.622 351.318 222.995 337.451V337.46Z" fill="#FEF7E6" stroke="#FEF7E6" stroke-width="0.695968" stroke-miterlimit="10"/>
<path d="M263.729 352.769C263.729 352.769 273.55 362.011 284.823 362.59C296.096 363.169 296.96 357.386 296.96 357.386C296.96 357.386 299.562 371.831 290.606 387.142C281.65 402.452 277.319 409.964 278.469 423.545C279.619 437.126 282.221 436.253 284.244 435.968C286.267 435.683 287.71 435.389 286.846 428.17C285.981 420.952 284.538 409.679 295.802 392.346C307.066 375.013 300.712 357.68 300.712 357.68C300.712 357.68 305.043 365.192 314.579 363.169C324.114 361.146 330.753 349.882 330.753 349.882C330.753 349.882 328.445 358.838 327.866 367.215C327.287 375.592 322.662 388.308 313.706 404.198C304.75 420.087 311.683 443.774 323.82 452.73C335.958 461.686 339.995 469.484 339.995 469.484C339.995 469.484 333.347 458.791 317.752 457.062C302.148 455.324 290.598 450.707 290.598 450.707L289.439 442.91C289.439 442.91 284.815 452.73 271.527 450.707C258.24 448.685 252.457 439.149 252.171 427.306C251.886 415.462 255.638 400.437 266.038 385.992C276.438 371.546 270.084 360.861 263.729 352.769Z" fill="#FEF7E6" stroke="#FEF7E6" stroke-width="0.695968" stroke-miterlimit="10"/>
<path d="M311.977 331.684C311.977 331.684 330.754 327.932 348.666 337.459C366.578 346.986 377.557 346.415 377.557 346.415C377.557 346.415 375.534 348.438 375.82 352.19C376.105 355.942 379.001 377.036 369.172 392.346C359.351 407.656 359.351 418.35 361.08 433.374C362.818 448.399 381.88 459.664 399.792 465.447C399.792 465.447 385.926 466.026 366.855 458.799C347.784 451.572 344.032 449.264 337.964 450.422C337.964 450.422 339.987 447.241 336.226 437.42C332.466 427.6 330.158 409.108 346.341 383.683C362.515 358.259 345.182 331.97 311.96 331.684H311.977Z" fill="#FEF7E6" stroke="#FEF7E6" stroke-width="0.695968" stroke-miterlimit="10"/>
<path d="M392.003 343.814C391.256 343.092 401.538 353.349 410.779 352.77C420.021 352.191 434.467 343.528 434.467 343.528C434.467 343.528 425.225 351.905 425.225 366.351C425.225 366.351 430.429 368.374 433.896 361.441C433.896 361.441 427.248 376.751 433.317 388.309C433.317 388.309 429.565 381.955 422.917 380.511C422.917 380.511 419.165 390.332 414.825 399.582C410.486 408.832 406.155 430.781 411.644 434.542C417.134 438.302 423.488 425.3 425.511 418.073C425.511 418.073 424.931 436.85 428.113 451.875C431.294 466.9 431.865 473.833 431.865 473.833C431.865 473.833 424.067 449.273 409.621 449.273C395.176 449.273 383.911 444.648 383.911 427.608C383.911 410.569 397.198 381.384 397.198 381.384C397.198 381.384 389.401 382.542 385.64 386.009C385.64 386.009 391.13 378.497 391.13 372.722C391.13 366.947 389.686 359.141 389.686 359.141C389.686 359.141 392.573 367.518 399.8 367.518C400.665 367.518 400.665 352.207 392.003 343.83V343.814Z" fill="#FEF7E6" stroke="#FEF7E6" stroke-width="0.695968" stroke-miterlimit="10"/>
<path d="M443.146 340.347C443.146 340.347 448.35 347.28 462.796 346.995C477.241 346.709 480.129 340.347 480.129 340.347C480.129 340.347 474.354 348.438 477.241 354.793C480.129 361.147 482.731 363.749 482.731 363.749C482.731 363.749 476.956 359.703 463.954 360.567C450.952 361.432 441.71 364.613 441.71 364.613C441.71 364.613 454.712 357.965 443.154 340.347H443.146Z" fill="#FEF7E6" stroke="#FEF7E6" stroke-width="0.695968" stroke-miterlimit="10"/>
<path d="M450.659 366.35L476.369 365.771C476.369 365.771 476.369 383.104 466.833 401.596C457.298 420.087 455.569 444.068 475.79 454.753C496.01 465.447 502.373 466.311 502.373 466.311C502.373 466.311 477.812 464.868 465.684 459.378C453.546 453.889 444.305 449.843 439.1 451.58C439.1 451.58 436.792 440.316 435.349 425.577C433.905 410.837 450.952 387.444 450.659 366.35Z" fill="#FEF7E6" stroke="#FEF7E6" stroke-width="0.695968" stroke-miterlimit="10"/>
<path d="M473.48 330.526C473.48 330.526 498.234 339.767 497.654 364.613C497.075 389.458 482.974 397.256 484.124 416.612C485.274 435.968 487.574 446.368 480.095 449.549C480.095 449.549 503.698 446.368 517.506 452.73C517.506 452.73 506.569 439.728 508.298 420.087C510.027 400.437 520.67 381.661 520.67 381.661C520.67 381.661 522.97 377.615 526.714 378.479C530.457 379.344 527.864 385.127 527.864 385.127C527.864 385.127 509.448 414.883 522.685 449.843L566.433 460.243C566.433 460.243 535.065 452.151 541.68 420.952C548.294 389.752 554.346 380.796 554.346 380.796C554.346 380.796 555.21 377.329 559.81 379.059C564.418 380.796 560.096 388.594 560.096 388.594C560.096 388.594 548.579 410.552 552.617 431.066L556.646 451.58C556.646 451.58 564.418 450.422 587.442 462.274C610.466 474.118 634.07 470.072 634.07 470.072C634.07 470.072 599.244 473.253 587.157 448.693C575.07 424.133 576.22 408.244 583.413 391.204C590.607 374.157 585.142 365.2 576.22 364.336C567.297 363.471 562.983 364.915 555.496 373.292C555.496 373.292 552.617 364.336 541.394 363.757C530.172 363.178 523.264 372.713 523.264 372.713L524.993 363.178C524.993 363.178 514.341 362.892 504.848 354.507C495.355 346.13 489.596 335.436 473.48 330.526Z" fill="#FEF7E6" stroke="#FEF7E6" stroke-width="0.687045" stroke-miterlimit="10"/>
<path d="M127.08 496.646C127.08 496.646 134.298 504.159 146.729 502.136C159.152 500.113 166.085 492.315 166.085 492.315C166.085 492.315 159.731 503.294 161.754 509.648C163.777 516.002 168.973 519.183 168.973 519.183C168.973 519.183 158.279 514.852 148.458 516.296C138.638 517.74 129.967 522.65 129.967 522.65C129.967 522.65 138.638 512.829 127.08 496.646Z" fill="#FEF7E6" stroke="#FEF7E6" stroke-width="0.695968" stroke-miterlimit="10"/>
<path d="M138.344 522.364L164.054 521.785C164.054 521.785 170.123 535.945 159.429 554.722C148.736 573.499 144.698 598.344 160.873 609.323C177.048 620.302 190.629 624.634 190.629 624.634C190.629 624.634 161.737 618.28 153.067 615.098C144.396 611.917 133.132 602.39 117.242 611.053C117.242 611.053 125.04 604.119 124.461 596.607C123.882 589.094 121.573 570.603 132.838 557.316C144.102 544.029 138.327 522.356 138.327 522.356L138.344 522.364Z" fill="#FEF7E6" stroke="#FEF7E6" stroke-width="0.695968" stroke-miterlimit="10"/>
<path d="M170.995 495.781C170.29 495.017 188.622 511.671 199.601 515.137C210.58 518.604 212.603 518.889 212.603 518.889L214.047 531.597C214.047 531.597 236.005 515.994 235.14 507.91C235.14 507.91 230.515 531.312 230.809 539.689C231.103 548.066 230.524 562.805 230.524 562.805C230.524 562.805 227.636 546.051 217.816 550.668C207.995 555.285 202.212 562.512 198.166 582.447C194.12 602.382 212.032 615.384 236.878 613.646C236.878 613.646 215.499 621.159 203.362 616.534C191.224 611.909 184.87 605.84 175.629 607.863C175.629 607.863 177.652 605.84 174.764 597.169C171.877 588.499 171.877 572.609 181.697 555.855C191.518 539.101 188.916 515.121 171.004 495.765L170.995 495.781Z" fill="#FEF7E6" stroke="#FEF7E6" stroke-width="0.695968" stroke-miterlimit="10"/>
<path d="M242.929 510.227C242.929 510.227 248.998 519.183 272.4 521.492L273.844 532.756C273.844 532.756 280.777 519.469 296.666 514.265C312.556 509.061 316.316 503.286 316.316 503.286C316.316 503.286 308.518 513.4 299.847 517.446C291.177 521.492 289.448 533.05 288.868 544.6C288.289 556.149 281.356 561.354 281.356 561.354C281.356 561.354 283.664 548.645 275.867 552.112C268.069 555.579 259.113 565.693 258.24 578.116C257.367 590.539 266.331 604.699 300.133 616.542C300.133 616.542 275.573 612.79 262 607.586C248.419 602.382 235.132 607.007 235.132 607.007C235.132 607.007 236.575 604.12 234.553 597.472C232.53 590.824 227.619 577.251 242.929 555.293C258.24 533.335 242.929 510.227 242.929 510.227Z" fill="#FEF7E6" stroke="#FEF7E6" stroke-width="0.695968" stroke-miterlimit="10"/>
<path d="M276.228 122.806C265.61 97.4571 277.965 84.4553 281.642 79.2512C285.327 74.047 290.959 67.7685 292.042 55.8494C293.125 43.9303 288.793 46.3141 300.712 34.1851C300.712 34.1851 286.41 41.1184 264.091 26.1691C242.116 11.4465 220.989 9.75093 212.486 10.5315C216.187 10.2629 245.138 9.78452 265.392 57.3687C265.392 57.3687 259.541 47.4053 245.238 50.8719C230.935 54.3385 236.139 63.4373 227.041 75.7929C217.942 88.1401 205.158 113.716 220.326 128.447C235.493 143.178 246.111 138.2 253.481 131.267C253.481 131.267 257.812 134.516 248.067 142.322C248.067 142.322 258.467 137.772 272.115 141.885C282.582 145.041 301.577 147.308 309.878 148.189C301.913 146.963 284.311 142.103 276.236 122.815L276.228 122.806ZM261.707 70.5804C261.707 70.5804 245.507 91.1618 246.321 104.818C246.967 115.655 249.141 118.685 249.141 118.685C249.141 118.685 251.089 122.588 247.84 123.453C244.592 124.317 241.553 119.549 241.553 119.549C241.553 119.549 236.786 104.382 240.471 93.3274C244.365 81.6433 254.992 68.8429 254.992 68.8429C254.992 68.8429 257.157 64.5117 260.624 65.5945C264.091 66.6773 261.707 70.5804 261.707 70.5804Z" fill="#FEF7E6" stroke="#FEF7E6" stroke-width="0.695968" stroke-miterlimit="10"/>
<path d="M212.485 10.5227C212.225 10.5395 212.091 10.5563 212.091 10.5563C212.217 10.5395 212.359 10.5311 212.485 10.5227Z" fill="#FEF7E6" stroke="#FEF7E6" stroke-width="0.695968" stroke-miterlimit="10"/>
<path d="M309.87 148.181C312.371 148.567 313.933 148.592 313.933 148.592C313.933 148.592 312.397 148.449 309.87 148.181Z" fill="#FEF7E6" stroke="#FEF7E6" stroke-width="0.695968" stroke-miterlimit="10"/>
<path d="M287.425 85.9404C284.756 86.6875 283.598 87.2667 283.598 87.2667C283.598 87.2667 285.092 86.847 287.425 85.9404Z" fill="#FEF7E6" stroke="#FEF7E6" stroke-width="0.695968" stroke-miterlimit="10"/>
<path d="M354.012 121.723C340.364 101.788 360.081 80.3333 365.495 70.5881C370.909 60.8346 362.465 52.6003 345.996 50.8712C329.528 49.1337 320.211 55.6389 311.112 68.859C304.598 78.3188 293.317 83.674 287.425 85.9487C291.269 84.8743 298.244 83.4557 309.374 82.9437C328.227 82.0791 330.392 78.6125 330.392 78.6125C326.061 75.7923 329.091 73.1986 332.776 68.2127C336.461 63.2268 343.613 63.8815 340.146 71.2428C336.679 78.6125 333.859 82.5072 316.744 88.3577C299.629 94.2081 292.906 96.8102 294.207 111.323C295.508 125.844 302.005 134.506 316.089 137.755C330.174 141.003 332.776 129.521 332.776 129.521C336.243 135.589 331.475 141.003 331.475 141.003C339.063 137.537 340.356 136.236 361.164 142.304C381.964 148.373 386.949 142.951 386.949 142.951C386.949 142.951 367.669 141.65 354.012 121.714V121.723ZM322.595 122.369C318.045 120.204 315.007 106.765 319.128 102.434C323.241 98.1028 325.625 97.2299 325.625 97.2299C325.625 97.2299 324.105 105.028 326.489 113.698C328.873 122.369 327.136 124.535 322.586 122.369H322.595Z" fill="#FEF7E6" stroke="#FEF7E6" stroke-width="0.695968" stroke-miterlimit="10"/>
<path d="M261.497 218.141C259.113 205.358 232.899 207.087 232.899 207.087C211.235 206.441 204.512 232.873 196.932 245.656C189.344 258.44 186.096 269.276 191.082 280.322C196.068 291.377 211.881 298.52 231.817 294.625C251.752 290.722 246.338 274.044 247.849 259.959C249.368 245.874 263.881 230.925 261.497 218.141ZM238.305 227.098C238.305 227.098 232.673 240.821 226.747 250.357C220.821 259.892 221.979 275.345 221.979 275.345C221.979 275.345 222.986 280.398 218.798 280.398C214.609 280.398 214.316 275.63 214.316 275.63C214.316 275.63 212.578 261.185 220.384 248.476C228.182 235.768 231.221 226.082 231.221 226.082C231.221 226.082 232.522 221.608 236.425 222.036C240.328 222.473 238.305 227.089 238.305 227.089V227.098Z" fill="#FEF7E6" stroke="#FEF7E6" stroke-width="0.695968" stroke-miterlimit="10"/>
<path d="M113.213 389.467C119.282 372.713 108.009 366.644 99.3468 364.042C90.676 361.44 67.5681 356.244 56.8744 377.33C46.1808 398.423 30.8706 407.379 30.8706 407.379C30.8706 407.379 38.383 404.198 51.3849 399.288C64.3868 394.377 76.8096 397.265 76.8096 397.265C76.8096 397.265 81.1407 385.706 81.4345 383.398C81.7199 381.09 81.7199 377.33 86.6387 377.33C91.5574 377.33 90.3907 383.684 88.9469 390.911C87.5032 398.129 80.57 399.288 64.966 405.071C49.362 410.846 44.7455 415.471 41.8496 426.45C38.9538 437.429 40.6913 448.408 56.8744 451.874C73.0492 455.341 74.2075 443.497 74.2075 443.497L76.5158 451.01C95.2926 449.566 115.807 458.228 115.807 458.228C81.4261 439.158 107.136 406.229 113.205 389.467H113.213ZM84.0366 415.974C77.7497 422.908 76.6669 428.867 74.2831 434.172C71.8992 439.477 65.0751 438.503 64.2106 430.924C63.346 423.344 69.7336 416.083 80.57 408.823C91.4063 401.562 97.475 392.136 97.475 392.136C97.475 392.136 90.3235 409.041 84.045 415.974H84.0366Z" fill="#FEF7E6" stroke="#FEF7E6" stroke-width="0.695968" stroke-miterlimit="10"/>
<path d="M669.474 453.603C650.194 440.022 659.981 399.287 662.281 385.421C664.581 371.554 656.523 364.621 639.836 363.757C623.141 362.892 616.527 368.088 608.754 381.954C600.981 395.821 585.151 405.071 585.151 405.071C601.552 396.4 627.17 396.979 627.17 396.979C627.17 396.979 630.334 386.285 630.914 381.669C631.493 377.044 640.122 374.736 638.107 386.579C636.093 398.423 635.513 399.287 615.662 404.491C595.803 409.696 598.967 418.937 599.832 429.916C600.696 440.895 604.725 449.272 618.541 451.01C632.357 452.747 636.386 442.918 636.386 442.918C637.822 449.851 635.807 453.612 635.807 453.612C645.88 451.303 661.425 464.591 674.083 467.193C686.749 469.795 699.407 465.17 699.407 465.17C699.407 465.17 688.755 467.193 669.474 453.612V453.603ZM619.968 439.737C608.527 437.496 616.367 422.546 616.367 422.546C619.607 415.613 632.265 410.199 632.265 410.199C632.265 410.199 632.626 425.081 633.13 429.773C633.633 434.466 631.4 441.978 619.96 439.737H619.968Z" fill="#FEF7E6" stroke="#FEF7E6" stroke-width="0.687045" stroke-miterlimit="10"/>
<path d="M282.363 571.426C280.743 572.777 279.148 574.238 277.604 575.808C277.604 575.808 279.509 574.129 282.363 571.426Z" fill="#FEF7E6" stroke="#FEF7E6" stroke-width="0.695968" stroke-miterlimit="10"/>
<path d="M350.697 588.23C345.493 575.522 358.495 560.204 361.961 544.894C365.428 529.583 351.268 520.913 333.649 520.333C316.022 519.754 312.556 528.131 307.36 541.133C303.608 550.517 289.775 564.409 282.363 571.418C302.189 554.832 326.137 553.841 326.137 553.841C326.137 553.841 329.603 546.043 330.182 540.26C330.762 534.485 337.98 533.327 337.98 542.862C337.98 552.398 329.889 557.308 320.353 559.331C310.818 561.354 292.041 566.843 290.883 580.424C289.725 594.005 292.906 606.134 308.216 607.578C323.526 609.022 325.264 597.757 325.264 597.757L326.422 606.134L379.294 612.203C379.294 612.203 355.892 600.939 350.697 588.222V588.23ZM327.58 575.808C321.512 586.929 324.55 594.299 318.045 592.419C311.548 590.539 314.578 581.725 318.188 575.086C321.797 568.438 338.408 557.459 339.13 557.031C339.13 557.031 333.641 564.686 327.572 575.808H327.58Z" fill="#FEF7E6" stroke="#FEF7E6" stroke-width="0.695968" stroke-miterlimit="10"/>
<path d="M105.264 521.063C90.0967 514.567 82.727 526.696 82.727 526.696C82.727 526.696 79.6969 514.558 78.8239 508.926C77.9594 503.294 82.2905 502.857 82.2905 502.857L13.8228 467.318C74.0563 511.092 57.5961 544.893 46.3233 566.558C35.0589 588.222 44.5858 602.961 44.5858 602.961C39.8182 606.428 24.2142 611.632 24.2142 611.632C49.7816 606.428 83.1551 614.234 83.1551 614.234C71.8907 611.632 70.5896 601.669 70.5896 601.669C84.4561 609.038 103.955 611.632 102.226 591.269C100.488 570.897 109.159 560.934 114.363 548.796C119.567 536.659 120.432 527.56 105.264 521.063ZM91.1124 538.397C91.1124 538.397 89.5259 552.12 81.7198 563.385C73.922 574.649 75.5084 588.952 75.5084 588.952C75.5084 588.952 75.7938 593.141 72.6209 593.434C69.4397 593.72 69.0116 592.133 68.1471 589.968C67.2825 587.802 65.9815 575.808 74.3584 561.077C82.7354 546.345 83.6 540.134 83.6 540.134C83.6 540.134 82.5927 534.787 86.9239 534.208C91.2551 533.629 91.1124 538.397 91.1124 538.397Z" fill="#FEF7E6" stroke="#FEF7E6" stroke-width="0.695968" stroke-miterlimit="10"/>
<path d="M6.35225 107.008C3.54035 107.596 0.837566 106.06 0.317154 103.575C-0.203258 101.091 1.66015 98.5978 4.47206 98.0103C7.28396 97.4227 20.1264 100.075 20.1264 100.075C20.1264 100.075 9.16416 106.421 6.35225 107.008Z" fill="#FEF7E6"/>
<path d="M104.635 29.7779C102.595 27.755 102.377 24.6577 104.165 22.8531C105.952 21.0484 109.05 21.2247 111.098 23.2392C113.146 25.2537 118.023 37.4246 118.023 37.4246C118.023 37.4246 106.683 31.7924 104.635 29.7696V29.7779Z" fill="#FEF7E6"/>
<path d="M192.374 8.39886C194.942 6.66975 197.905 6.58582 198.996 8.19742C200.088 9.80902 198.887 12.5286 196.319 14.2577C193.75 15.9868 180.757 19.8899 180.757 19.8899C180.757 19.8899 189.805 10.128 192.374 8.39886Z" fill="#FEF7E6"/>
<path d="M100.43 44.7694C98.3146 44.5428 96.7954 42.5199 97.0388 40.2368C97.2822 37.9537 99.1876 36.2917 101.303 36.51C103.418 36.7282 111.77 42.352 111.77 42.352C111.77 42.352 102.545 44.9793 100.43 44.761V44.7694Z" fill="#FEF7E6"/>
<path d="M183.553 145.25C185.761 144.763 187.851 145.754 188.229 147.458C188.606 149.162 187.121 150.933 184.913 151.42C182.706 151.906 172.7 150.429 172.7 150.429C172.7 150.429 181.346 145.737 183.553 145.25Z" fill="#FEF7E6"/>
<path d="M235.988 149.582C238.195 149.095 240.285 150.086 240.663 151.79C241.041 153.494 239.555 155.265 237.348 155.752C235.14 156.238 225.135 154.761 225.135 154.761C225.135 154.761 233.78 150.069 235.988 149.582Z" fill="#FEF7E6"/>
<path d="M284.395 96.1055C282.406 97.1799 280.123 96.8106 279.3 95.2746C278.477 93.7385 279.409 91.6317 281.398 90.5573C283.388 89.4829 293.41 88.1399 293.41 88.1399C293.41 88.1399 286.384 95.0311 284.403 96.1055H284.395Z" fill="#FEF7E6"/>
<path d="M393.472 144.621C395.638 143.992 397.795 144.831 398.282 146.51C398.769 148.189 397.409 150.052 395.235 150.682C393.061 151.311 382.988 150.514 382.988 150.514C382.988 150.514 391.306 145.259 393.472 144.621Z" fill="#FEF7E6"/>
<path d="M331.459 193.834C333.65 194.388 335.077 196.209 334.648 197.896C334.22 199.583 332.097 200.507 329.906 199.944C327.715 199.382 319.439 193.582 319.439 193.582C319.439 193.582 329.276 193.271 331.467 193.825L331.459 193.834Z" fill="#FEF7E6"/>
<path d="M336.344 285.678C338.451 284.864 340.667 285.527 341.296 287.155C341.926 288.783 340.717 290.756 338.61 291.57C336.504 292.384 326.389 292.435 326.389 292.435C326.389 292.435 334.237 286.492 336.344 285.686V285.678Z" fill="#FEF7E6"/>
<path d="M104.492 288.28C106.599 287.466 108.815 288.129 109.444 289.758C110.074 291.386 108.865 293.359 106.758 294.173C104.652 294.987 94.5371 295.037 94.5371 295.037C94.5371 295.037 102.385 289.095 104.492 288.289V288.28Z" fill="#FEF7E6"/>
<path d="M20.4116 409.435C18.204 409.905 16.114 408.898 15.7615 407.194C15.4089 405.49 16.903 403.727 19.1106 403.266C21.3181 402.796 31.3151 404.357 31.3151 404.357C31.3151 404.357 22.6276 408.973 20.42 409.444L20.4116 409.435Z" fill="#FEF7E6"/>
<path d="M26.5561 194.303C24.6088 193.162 23.7358 191.021 24.6172 189.519C25.4985 188.016 27.79 187.723 29.7374 188.856C31.6847 189.989 38.0388 197.862 38.0388 197.862C38.0388 197.862 28.5035 195.445 26.5477 194.303H26.5561Z" fill="#FEF7E6"/>
<path d="M94.0584 187.043C91.4815 185.516 90.5246 182.385 91.9012 180.06C93.2862 177.735 96.4926 177.08 99.0695 178.616C101.646 180.152 109.562 191.341 109.562 191.341C109.562 191.341 96.6269 188.58 94.05 187.052L94.0584 187.043Z" fill="#FEF7E6"/>
<path d="M20.705 205.836C17.8008 205.106 15.9878 202.386 16.6425 199.759C17.3056 197.132 20.193 195.596 23.0973 196.326C26.0015 197.056 36.7875 205.526 36.7875 205.526C36.7875 205.526 23.6009 206.575 20.6966 205.844L20.705 205.836Z" fill="#FEF7E6"/>
<path d="M460.639 6.25868C458.49 5.57039 457.172 3.67341 457.701 2.01144C458.23 0.349483 460.404 -0.439534 462.553 0.248753C464.702 0.93704 472.625 7.21555 472.625 7.21555C472.625 7.21555 462.788 6.94696 460.639 6.25868Z" fill="#FEF7E6"/>
<path d="M207.802 19.8736C205.637 20.5115 203.479 19.6805 202.984 18.0101C202.489 16.3398 203.849 14.468 206.014 13.8217C208.18 13.1754 218.261 13.9392 218.261 13.9392C218.261 13.9392 209.968 19.2356 207.802 19.8736Z" fill="#FEF7E6"/>
<path d="M207.903 9.23001C205.788 9.00338 204.269 6.98047 204.512 4.69737C204.755 2.41427 206.661 0.752309 208.776 0.970546C210.891 1.18878 219.243 6.81261 219.243 6.81261C219.243 6.81261 210.018 9.43985 207.903 9.22161V9.23001Z" fill="#FEF7E6"/>
<path d="M182.713 161.518C185.693 163.919 186.524 167.83 184.56 170.264C182.604 172.699 178.6 172.724 175.621 170.331C172.641 167.931 164.197 152.898 164.197 152.898C164.197 152.898 179.725 159.126 182.705 161.518H182.713Z" fill="#FEF7E6"/>
<path d="M324.383 150.229C328.085 151.194 330.443 154.426 329.654 157.447C328.865 160.469 325.231 162.139 321.529 161.174C317.827 160.209 303.961 149.952 303.961 149.952C303.961 149.952 320.681 149.263 324.383 150.229Z" fill="#FEF7E6"/>
<path d="M397.828 130.092C401.529 129.143 405.164 130.822 405.944 133.844C406.725 136.866 404.35 140.089 400.648 141.046C396.946 141.994 379.84 139.753 379.84 139.753C379.84 139.753 394.126 131.04 397.828 130.092Z" fill="#FEF7E6"/>
<path d="M333.028 183.493C335.689 182.813 338.258 183.887 338.778 185.902C339.299 187.916 337.561 190.099 334.9 190.779C332.239 191.458 320.06 190.174 320.06 190.174C320.06 190.174 330.376 184.173 333.028 183.484V183.493Z" fill="#FEF7E6"/>
<path d="M353.912 291.52C358.302 291.612 361.811 294.231 361.752 297.37C361.685 300.509 358.076 302.985 353.686 302.901C349.296 302.818 331.048 295.977 331.048 295.977C331.048 295.977 349.531 291.436 353.921 291.528L353.912 291.52Z" fill="#FEF7E6"/>
<path d="M204.049 300.913C208.339 301.87 211.26 305.126 210.58 308.198C209.9 311.271 205.871 312.983 201.582 312.026C197.293 311.069 180.757 300.762 180.757 300.762C180.757 300.762 199.769 299.956 204.058 300.913H204.049Z" fill="#FEF7E6"/>
<path d="M122.706 298.495C126.995 299.452 129.916 302.709 129.237 305.781C128.557 308.853 124.528 310.566 120.238 309.609C115.949 308.652 99.4136 298.344 99.4136 298.344C99.4136 298.344 118.425 297.539 122.715 298.495H122.706Z" fill="#FEF7E6"/>
<path d="M28.5285 426.5C26.3126 429.337 22.3172 429.933 19.6144 427.818C16.9032 425.702 16.5087 421.69 18.7246 418.845C20.9406 416.008 35.7891 408.462 35.7891 408.462C35.7891 408.462 30.7445 423.654 28.5285 426.491V426.5Z" fill="#FEF7E6"/>
<path d="M198.385 627.815C201.826 628.881 203.799 632.398 202.783 635.68C201.767 638.962 198.158 640.759 194.717 639.693C191.275 638.627 178.953 627.421 178.953 627.421C178.953 627.421 194.943 626.741 198.385 627.807V627.815Z" fill="#FEF7E6"/>
<path d="M313.118 490.578C314.881 488.026 317.97 487.095 320.001 488.505C322.041 489.915 322.259 493.13 320.488 495.681C318.717 498.233 307.142 506.022 307.142 506.022C307.142 506.022 311.356 493.13 313.118 490.578Z" fill="#FEF7E6"/>
<path d="M239.841 502.278C238.633 500.214 239.162 497.662 241.017 496.579C242.872 495.496 245.348 496.294 246.556 498.359C247.765 500.423 248.991 511.285 248.991 511.285C248.991 511.285 241.05 504.343 239.841 502.278Z" fill="#FEF7E6"/>
<path d="M170.936 487.984C169.728 485.919 170.256 483.368 172.111 482.285C173.966 481.202 176.443 481.999 177.651 484.064C178.86 486.129 180.085 496.991 180.085 496.991C180.085 496.991 172.145 490.049 170.936 487.984Z" fill="#FEF7E6"/>
<path d="M3.27172 472.54C0.96344 471.91 -0.438315 469.72 0.124066 467.646C0.69484 465.573 3.01991 464.406 5.31979 465.036C7.61968 465.665 16.0974 472.573 16.0974 472.573C16.0974 472.573 5.56321 473.169 3.26333 472.54H3.27172Z" fill="#FEF7E6"/>
<path d="M642.615 471.767C646.216 471.944 648.994 474.865 648.826 478.298C648.658 481.731 645.603 484.366 642.01 484.19C638.41 484.014 623.695 476.216 623.695 476.216C623.695 476.216 639.022 471.591 642.615 471.767Z" fill="#FEF7E6"/>
<path d="M232.824 409.629C233.622 411.861 232.27 414.38 229.811 415.261C227.351 416.134 224.707 415.034 223.918 412.801C223.121 410.569 224.858 399.422 224.858 399.422C224.858 399.422 232.035 407.396 232.824 409.629Z" fill="#FEF7E6"/>
<path d="M228.291 571.359C228.291 573.726 226.176 575.648 223.557 575.648C220.947 575.648 218.832 573.726 218.832 571.359C218.832 568.992 224.204 559.07 224.204 559.07C224.204 559.07 228.291 568.992 228.291 571.359Z" fill="#FEF7E6"/>
<path d="M305.43 342.067C303.282 343.066 300.646 341.958 299.546 339.591C298.447 337.224 299.294 334.496 301.443 333.489C303.592 332.481 314.848 333.178 314.848 333.178C314.848 333.178 307.579 341.068 305.43 342.067Z" fill="#FEF7E6"/>
<path d="M633.172 484.249C635.078 485.659 635.355 488.505 633.793 490.603C632.232 492.702 629.429 493.255 627.532 491.837C625.626 490.427 620.875 480.195 620.875 480.195C620.875 480.195 631.275 482.83 633.172 484.249Z" fill="#FEF7E6"/>
<path d="M387.755 601.551C390.122 601.635 391.969 603.826 391.868 606.436C391.776 609.047 389.778 611.095 387.411 611.011C385.044 610.927 375.324 605.194 375.324 605.194C375.324 605.194 385.388 601.475 387.755 601.559V601.551Z" fill="#FEF7E6"/>
<path d="M432.788 335.386C434.198 334.303 436.212 334.547 437.278 335.932C438.344 337.317 438.067 339.331 436.657 340.414C435.247 341.497 427.139 343.192 427.139 343.192C427.139 343.192 431.378 336.469 432.788 335.386Z" fill="#FEF7E6"/>
<path d="M485.005 324.365C484.678 322.611 485.803 320.932 487.532 320.605C489.261 320.278 490.915 321.436 491.242 323.19C491.569 324.944 489.404 332.935 489.404 332.935C489.404 332.935 485.333 326.111 485.005 324.357V324.365Z" fill="#FEF7E6"/>
<path d="M441.845 480.32C442.827 481.806 442.441 483.795 440.98 484.76C439.52 485.726 437.539 485.306 436.557 483.82C435.575 482.335 434.467 474.125 434.467 474.125C434.467 474.125 440.863 478.834 441.853 480.32H441.845Z" fill="#FEF7E6"/>
<path d="M182.402 634.169C183.384 635.655 182.998 637.644 181.537 638.61C180.077 639.575 178.096 639.155 177.114 637.67C176.132 636.184 175.024 627.975 175.024 627.975C175.024 627.975 181.42 632.684 182.41 634.169H182.402Z" fill="#FEF7E6"/>
<path d="M280.013 585.553C279.174 587.122 277.235 587.727 275.69 586.896C274.146 586.065 273.575 584.126 274.423 582.556C275.271 580.986 281.969 576.118 281.969 576.118C281.969 576.118 280.861 583.983 280.013 585.553Z" fill="#FEF7E6"/>
<path d="M11.8001 481.462C10.1465 482.116 8.27472 481.336 7.6284 479.699C6.98208 478.062 7.79627 476.216 9.45823 475.561C11.1202 474.906 19.3796 475.502 19.3796 475.502C19.3796 475.502 13.4621 480.799 11.8001 481.462Z" fill="#FEF7E6"/>
<path d="M430.647 487.204C430.051 489.713 427.13 491.157 424.134 490.444C421.137 489.722 419.19 487.111 419.794 484.61C420.398 482.109 429.078 473.094 429.078 473.094C429.078 473.094 431.252 484.702 430.656 487.212L430.647 487.204Z" fill="#FEF7E6"/>
<path d="M700.003 451.958C702.295 450.783 705.291 452.05 706.701 454.795C708.112 457.54 707.39 460.713 705.098 461.896C702.807 463.08 690.317 462.358 690.317 462.358C690.317 462.358 697.703 453.142 699.995 451.966L700.003 451.958Z" fill="#FEF7E6"/>
<path d="M463.232 321.301C459.824 318.405 458.926 313.856 461.226 311.153C463.526 308.45 468.151 308.61 471.559 311.506C474.967 314.402 484.502 332.104 484.502 332.104C484.502 332.104 466.64 324.197 463.232 321.301Z" fill="#FEF7E6"/>
<path d="M13.8058 629.612C9.90272 631.802 5.32813 631.064 3.59902 627.966C1.86152 624.869 3.6242 620.588 7.5273 618.398C11.4304 616.207 31.3404 613.428 31.3404 613.428C31.3404 613.428 17.7173 627.421 13.8058 629.612Z" fill="#FEF7E6"/>
<path d="M233 398.566C234.091 399.237 234.444 400.656 233.789 401.722C233.134 402.788 231.707 403.107 230.616 402.435C229.525 401.764 226.302 396.744 226.302 396.744C226.302 396.744 231.909 397.902 233 398.574V398.566Z" fill="#FEF7E6"/>
<path d="M181.143 491.005C181.32 489.729 182.478 488.848 183.72 489.016C184.963 489.184 185.819 490.367 185.642 491.635C185.466 492.902 182.159 497.871 182.159 497.871C182.159 497.871 180.967 492.273 181.152 490.997L181.143 491.005Z" fill="#FEF7E6"/>
<path d="M87.4939 615.309C88.7361 615.645 89.4748 616.895 89.1558 618.104C88.8369 619.313 87.561 620.026 86.3188 619.699C85.0765 619.371 80.5522 615.485 80.5522 615.485C80.5522 615.485 86.2516 614.981 87.4939 615.309Z" fill="#FEF7E6"/>
<path d="M501.357 470.357C502.448 471.029 502.801 472.447 502.146 473.513C501.491 474.579 500.064 474.898 498.973 474.227C497.882 473.555 494.659 468.536 494.659 468.536C494.659 468.536 500.266 469.694 501.357 470.365V470.357Z" fill="#FEF7E6"/>
<path d="M389.308 615.208C390.399 615.879 390.752 617.298 390.097 618.364C389.442 619.43 388.015 619.749 386.924 619.077C385.833 618.406 382.61 613.386 382.61 613.386C382.61 613.386 388.217 614.545 389.308 615.216V615.208Z" fill="#FEF7E6"/>
<path d="M703.058 470.029C704.149 470.701 704.501 472.119 703.847 473.185C703.192 474.251 701.765 474.57 700.674 473.899C699.583 473.227 696.359 468.208 696.359 468.208C696.359 468.208 701.966 469.366 703.058 470.038V470.029Z" fill="#FEF7E6"/>
<path d="M378.716 338.592C379.782 337.879 381.217 338.139 381.914 339.18C382.61 340.221 382.317 341.648 381.242 342.361C380.168 343.075 374.275 343.931 374.275 343.931C374.275 343.931 377.65 339.306 378.716 338.592Z" fill="#FEF7E6"/>
<path d="M82.0639 353.852C78.4965 354.381 75.2062 352.047 74.7025 348.656C74.1989 345.257 76.6835 342.075 80.2508 341.547C83.8182 341.018 99.7663 345.811 99.7663 345.811C99.7663 345.811 85.6312 353.331 82.0723 353.86L82.0639 353.852Z" fill="#FEF7E6"/>
<path d="M144.84 340.414C142.532 340.364 140.694 339.038 140.728 337.451C140.761 335.865 142.666 334.631 144.966 334.681C147.266 334.732 156.852 338.215 156.852 338.215C156.852 338.215 147.14 340.473 144.832 340.414H144.84Z" fill="#FEF7E6"/>
<path d="M243.895 613.546C246.12 612.925 248.268 613.663 248.688 615.183C249.108 616.702 247.656 618.448 245.431 619.069C243.207 619.69 233.034 619.145 233.034 619.145C233.034 619.145 241.671 614.167 243.895 613.546Z" fill="#FEF7E6"/>
<path d="M452.236 19.5623C448.417 19.4448 445.387 16.826 445.488 13.7035C445.58 10.581 448.753 8.14685 452.58 8.25597C456.408 8.36509 472.205 15.2731 472.205 15.2731C472.205 15.2731 456.064 19.6715 452.236 19.5623Z" fill="#FEF7E6"/>
<path d="M471.76 152.167C468.722 152.939 465.818 151.865 465.28 149.758C464.743 147.651 466.775 145.318 469.813 144.546C472.852 143.773 486.685 144.865 486.685 144.865C486.685 144.865 474.791 151.395 471.752 152.176L471.76 152.167Z" fill="#FEF7E6"/>
<path d="M570.521 23.9695C568.439 22.744 567.826 19.9237 569.153 17.6658C570.479 15.4162 573.249 14.5853 575.33 15.8108C577.412 17.0362 583.397 26.8149 583.397 26.8149C583.397 26.8149 572.602 25.195 570.521 23.9611V23.9695Z" fill="#FEF7E6"/>
<path d="M636.756 138.578C640.282 139.031 642.825 141.793 642.456 144.747C642.078 147.702 638.913 149.742 635.396 149.288C631.871 148.835 617.904 140.869 617.904 140.869C617.904 140.869 633.239 138.125 636.765 138.578H636.756Z" fill="#FEF7E6"/>
<path d="M624.611 152.578C626.181 153.686 626.55 155.869 625.434 157.447C624.317 159.033 622.143 159.419 620.574 158.311C619.004 157.203 614.723 149.313 614.723 149.313C614.723 149.313 623.041 151.47 624.611 152.578Z" fill="#FEF7E6"/>
<path d="M4.07732 86.8297C1.0136 84.4627 0.224591 80.3414 2.31463 77.6386C4.40468 74.9274 8.59315 74.6504 11.6569 77.0258C14.7206 79.4013 23.2486 94.8877 23.2486 94.8877C23.2486 94.8877 7.14104 89.2052 4.07732 86.8381V86.8297Z" fill="#FEF7E6"/>
</svg>
